<svg width="24" height="24" viewBox="0 0 24 24" fill="none" xmlns="http://www.w3.org/2000/svg">
<path fill-rule="evenodd" clip-rule="evenodd" d="M14.5327 4.03179C13.8926 4.80483 12.8175 5.38461 11.96 5.38461C11.8633 5.38461 11.7667 5.37254 11.7063 5.36046C11.6942 5.31214 11.6701 5.1672 11.6701 5.02225C11.6701 4.03179 12.1653 3.06548 12.7088 2.44946C13.3973 1.64018 14.5448 1.03624 15.499 1C15.5232 1.10871 15.5353 1.24158 15.5353 1.37444C15.5353 2.35283 15.1125 3.33121 14.5327 4.03179ZM10.3321 19.6399C9.90164 19.8248 9.49372 20 8.94024 20C7.75652 20 6.93516 18.9129 5.99301 17.5842C4.89383 16.014 4 13.5861 4 11.2911C4 7.59503 6.40369 5.63826 8.77114 5.63826C9.46213 5.63826 10.0935 5.89163 10.6549 6.11692C11.1043 6.29726 11.5089 6.45962 11.8633 6.45962C12.1707 6.45962 12.5539 6.30822 13.0004 6.13176C13.6241 5.88529 14.3715 5.58994 15.2092 5.58994C15.7406 5.58994 17.6853 5.63826 18.9657 7.47424C18.9583 7.47995 18.9427 7.49028 18.9199 7.50533C18.6048 7.71331 16.9243 8.82268 16.9243 11.0979C16.9243 13.9123 19.3764 14.9148 19.4609 14.939C19.4587 14.9444 19.4537 14.9599 19.4458 14.9845C19.3652 15.234 18.9809 16.4232 18.1564 17.6325C17.3471 18.7921 16.4895 19.9758 15.2092 19.9758C14.5781 19.9758 14.176 19.7978 13.7608 19.6139C13.3178 19.4177 12.8598 19.2149 12.0928 19.2149C11.3217 19.2149 10.8128 19.4334 10.3321 19.6399Z" fill="black"/>
</svg>
