<svg width="24" height="24" viewBox="0 0 24 24" fill="none" xmlns="http://www.w3.org/2000/svg">
<g clip-path="url(#clip0_6505_28139)">
<path fill-rule="evenodd" clip-rule="evenodd" d="M11.5303 6.53033C11.8232 6.23744 11.8232 5.76256 11.5303 5.46967C11.2374 5.17678 10.7626 5.17678 10.4697 5.46967L4.46967 11.4697C4.39776 11.5416 4.34351 11.6245 4.30691 11.7129C4.27024 11.8013 4.25 11.8983 4.25 12C4.25 12.1017 4.27024 12.1987 4.30691 12.2871C4.34351 12.3755 4.39776 12.4584 4.46967 12.5303L10.4697 18.5303C10.7626 18.8232 11.2374 18.8232 11.5303 18.5303C11.8232 18.2374 11.8232 17.7626 11.5303 17.4697L6.81066 12.75H19C19.4142 12.75 19.75 12.4142 19.75 12C19.75 11.5858 19.4142 11.25 19 11.25H6.81066L11.5303 6.53033Z" fill="black"/>
</g>
<defs>
<clipPath id="clip0_6505_28139">
<rect width="24" height="24" fill="white"/>
</clipPath>
</defs>
</svg>
