<svg width="24" height="24" viewBox="0 0 24 24" fill="none" xmlns="http://www.w3.org/2000/svg">
<g clip-path="url(#clip0_6505_28140)">
<path fill-rule="evenodd" clip-rule="evenodd" d="M13.5303 5.46967C13.2374 5.17678 12.7626 5.17678 12.4697 5.46967C12.1768 5.76256 12.1768 6.23744 12.4697 6.53033L17.1893 11.25H5C4.58579 11.25 4.25 11.5858 4.25 12C4.25 12.4142 4.58579 12.75 5 12.75H17.1893L12.4697 17.4697C12.1768 17.7626 12.1768 18.2374 12.4697 18.5303C12.7626 18.8232 13.2374 18.8232 13.5303 18.5303L19.5303 12.5303C19.6768 12.3839 19.75 12.1919 19.75 12C19.75 11.8983 19.7298 11.8013 19.6931 11.7129C19.6565 11.6245 19.6022 11.5416 19.5303 11.4697L13.5303 5.46967Z" fill="black"/>
</g>
<defs>
<clipPath id="clip0_6505_28140">
<rect width="24" height="24" fill="white"/>
</clipPath>
</defs>
</svg>
