<svg width="24" height="24" viewBox="0 0 24 24" fill="none" xmlns="http://www.w3.org/2000/svg">
<g clip-path="url(#clip0_15659_48244)">
<path fill-rule="evenodd" clip-rule="evenodd" d="M18.5303 13.5303C18.8232 13.2374 18.8232 12.7626 18.5303 12.4697C18.2374 12.1768 17.7626 12.1768 17.4697 12.4697L12.75 17.1893L12.75 5C12.75 4.58579 12.4142 4.25 12 4.25C11.5858 4.25 11.25 4.58579 11.25 5L11.25 17.1893L6.53033 12.4697C6.23744 12.1768 5.76256 12.1768 5.46967 12.4697C5.17678 12.7626 5.17678 13.2374 5.46967 13.5303L11.4697 19.5303C11.6155 19.6762 11.8066 19.7494 11.9978 19.75C11.9985 19.75 11.9993 19.75 12 19.75C12.0008 19.75 12.0015 19.75 12.0022 19.75C12.1031 19.7497 12.1993 19.7295 12.2871 19.6931C12.3755 19.6565 12.4584 19.6022 12.5303 19.5303L18.5303 13.5303Z" fill="black"/>
</g>
<defs>
<clipPath id="clip0_15659_48244">
<rect width="24" height="24" fill="white"/>
</clipPath>
</defs>
</svg>
