<svg width="24" height="24" viewBox="0 0 24 24" fill="none" xmlns="http://www.w3.org/2000/svg">
<path d="M6.55306 9.16766C6.75856 8.91063 6.89801 8.56551 6.86123 8.21284C6.56041 8.2278 6.19332 8.4113 5.9808 8.66853C5.78997 8.88881 5.62108 9.24838 5.66511 9.58626C6.00279 9.61555 6.34016 9.41747 6.55306 9.16766Z" fill="black"/>
<path d="M6.85772 9.6525C6.36733 9.62329 5.95037 9.93082 5.71618 9.93082C5.48187 9.93082 5.12325 9.66722 4.73537 9.67432C4.23053 9.68174 3.76209 9.96718 3.5059 10.4212C2.97897 11.3294 3.36684 12.6766 3.87926 13.4162C4.1281 13.7822 4.42799 14.1851 4.82315 14.1706C5.19651 14.156 5.34285 13.9289 5.79668 13.9289C6.25018 13.9289 6.382 14.1706 6.77723 14.1633C7.18708 14.156 7.44331 13.7972 7.69215 13.4309C7.97762 13.0137 8.09448 12.6109 8.10183 12.5888C8.09448 12.5815 7.31151 12.2811 7.30425 11.3805C7.29686 10.6263 7.91897 10.2676 7.94824 10.2454C7.59693 9.72581 7.04802 9.66722 6.85772 9.6525Z" fill="black"/>
<path d="M11.1276 8.63161C12.1935 8.63161 12.9357 9.36632 12.9357 10.436C12.9357 11.5095 12.1782 12.248 11.1009 12.248H9.92079V14.1247H9.06816V8.63161L11.1276 8.63161ZM9.92079 11.5323H10.8991C11.6415 11.5323 12.064 11.1327 12.064 10.4398C12.064 9.74704 11.6415 9.35112 10.9029 9.35112H9.92079V11.5323Z" fill="black"/>
<path d="M13.1603 12.9863C13.1603 12.2858 13.697 11.8557 14.6488 11.8024L15.7451 11.7377V11.4294C15.7451 10.984 15.4443 10.7175 14.9419 10.7175C14.466 10.7175 14.169 10.9459 14.0968 11.3037H13.3202C13.3659 10.5804 13.9825 10.0475 14.9723 10.0475C15.943 10.0475 16.5635 10.5614 16.5635 11.3646V14.1245H15.7755V13.4659H15.7565C15.5243 13.9114 15.018 14.193 14.4927 14.193C13.7085 14.193 13.1603 13.7058 13.1603 12.9863ZM15.7451 12.6247V12.3087L14.7591 12.3696C14.268 12.4039 13.9902 12.6209 13.9902 12.9635C13.9902 13.3137 14.2795 13.5421 14.7211 13.5421C15.2958 13.5421 15.7451 13.1462 15.7451 12.6247Z" fill="black"/>
<path d="M17.3073 15.5984V14.9322C17.3681 14.9474 17.5051 14.9474 17.5737 14.9474C17.9544 14.9474 18.16 14.7875 18.2855 14.3764C18.2855 14.3688 18.3579 14.1328 18.3579 14.129L16.9114 10.1205H17.8021L18.8148 13.3791H18.8299L19.8426 10.1205H20.7105L19.2106 14.3345C18.8681 15.3053 18.4722 15.6174 17.6423 15.6174C17.5737 15.6174 17.3681 15.6098 17.3073 15.5984Z" fill="black"/>
<path fill-rule="evenodd" clip-rule="evenodd" d="M2.14931 4H21.8507C21.9326 4 22.0148 4 22.0967 4.00048C22.1658 4.00097 22.2349 4.00174 22.3043 4.00362C22.4546 4.0077 22.6065 4.01659 22.7556 4.04332C22.9066 4.07053 23.0473 4.1149 23.1845 4.18475C23.3195 4.25335 23.4426 4.34308 23.5499 4.45014C23.6568 4.55721 23.7465 4.6805 23.8153 4.81553C23.8853 4.95274 23.9296 5.09343 23.9565 5.24469C23.9834 5.3935 23.9922 5.54542 23.9962 5.69591C23.9981 5.76499 23.999 5.83406 23.9994 5.90312C24 5.98521 24 6.06723 24 6.14946V17.2153C24 17.2975 24 17.3794 23.9994 17.4616C23.999 17.5307 23.9981 17.5998 23.9962 17.6688C23.9922 17.8192 23.9834 17.9711 23.9565 18.1199C23.9296 18.2712 23.8853 18.4118 23.8153 18.5491C23.7465 18.6841 23.6568 18.8076 23.5499 18.9145C23.4426 19.0217 23.3195 19.1114 23.1845 19.1798C23.0473 19.2499 22.9066 19.2943 22.7556 19.3214C22.6065 19.348 22.4546 19.3571 22.3043 19.3611C22.2349 19.3627 22.1658 19.3636 22.0967 19.3639C22.0148 19.3646 21.9326 19.3646 21.8507 19.3646H2.14931C2.06726 19.3646 1.98506 19.3646 1.90315 19.3639C1.83391 19.3636 1.76484 19.3627 1.69576 19.3611C1.54511 19.3571 1.39317 19.348 1.2444 19.3214C1.09326 19.2943 0.95261 19.2499 0.8154 19.1798C0.680509 19.1114 0.557016 19.0217 0.449995 18.9145C0.342928 18.8076 0.253204 18.6841 0.184621 18.5491C0.114747 18.4118 0.0703489 18.2712 0.043336 18.1199C0.0164551 17.9711 0.00750735 17.8192 0.00344744 17.6688C0.00159148 17.5998 0.000795452 17.5307 0.000344512 17.4616C-3.82314e-05 17.3958 -1.27661e-05 17.3303 1.27502e-05 17.2646C1.91332e-05 17.2482 2.55194e-05 17.2317 2.55194e-05 17.2153V6.14946C2.55194e-05 6.13301 1.91349e-05 6.11656 1.27527e-05 6.10013C-1.27644e-05 6.03441 -3.8244e-05 5.96878 0.000344512 5.90312C0.000795452 5.83406 0.00159148 5.76499 0.00344744 5.69591C0.00750735 5.54542 0.0164551 5.3935 0.043336 5.24469C0.0703489 5.09343 0.114747 4.95274 0.184621 4.81553C0.253204 4.6805 0.342928 4.55721 0.449995 4.45014C0.557016 4.34308 0.680509 4.25335 0.8154 4.18475C0.95261 4.1149 1.09326 4.07053 1.2444 4.04332C1.39317 4.01659 1.54511 4.0077 1.69576 4.00362C1.76484 4.00174 1.83391 4.00097 1.90315 4.00048C1.98506 4 2.06726 4 2.14931 4ZM22.0938 4.51266L21.8515 4.51219H2.15005L1.90688 4.51267C1.84174 4.51312 1.77612 4.51383 1.71049 4.51561C1.59537 4.51873 1.46094 4.52494 1.33569 4.54744C1.22699 4.567 1.13568 4.5968 1.04853 4.64118C0.961281 4.68555 0.882099 4.74307 0.812936 4.81226C0.743496 4.88169 0.68599 4.96083 0.641954 5.04752C0.597295 5.13523 0.567586 5.22637 0.548214 5.33482C0.525435 5.46093 0.519229 5.59508 0.516128 5.70979C0.514357 5.77534 0.513618 5.84094 0.513183 5.90655L0.512878 6.09869L0.512893 6.14952V17.2153L0.512878 17.2662L0.513197 17.4587C0.513618 17.5239 0.514357 17.5895 0.516128 17.6552C0.519229 17.7697 0.525435 17.9038 0.548027 18.0289C0.567571 18.1383 0.597295 18.2295 0.641722 18.3168C0.686106 18.4041 0.74351 18.4832 0.812587 18.5521C0.882199 18.6218 0.961123 18.6792 1.04781 18.7232C1.13591 18.7681 1.22705 18.7979 1.33575 18.8175C1.46246 18.8401 1.60251 18.8463 1.71033 18.8493C1.77413 18.8507 1.84012 18.8516 1.90625 18.8519C1.98724 18.8525 2.06694 18.8525 2.14648 18.8525H2.14685H2.15005H21.8515H21.8571C21.9358 18.8525 22.0148 18.8525 22.0935 18.8519C22.1611 18.8516 22.2271 18.8507 22.2934 18.8492C22.3988 18.8463 22.5388 18.8401 22.6666 18.8173C22.7743 18.7979 22.8655 18.7681 22.9524 18.7237C23.0399 18.6794 23.1189 18.622 23.1885 18.5524C23.2576 18.4833 23.3152 18.404 23.3596 18.3167C23.4042 18.2294 23.4338 18.1385 23.453 18.0304C23.4757 17.9051 23.4819 17.7704 23.485 17.6551C23.4868 17.5897 23.4877 17.5245 23.488 17.4593C23.4886 17.3768 23.4886 17.2963 23.4886 17.2153V6.14952V6.14521C23.4886 6.06575 23.4886 5.98648 23.488 5.90716C23.4877 5.84039 23.4868 5.77517 23.485 5.70995C23.4819 5.5944 23.4757 5.4597 23.4533 5.33585C23.4338 5.2262 23.4042 5.13534 23.3599 5.04842C23.3153 4.96097 23.2577 4.8816 23.1882 4.81204C23.119 4.74295 23.0398 4.68536 22.9533 4.64141C22.8657 4.59681 22.7744 4.567 22.6655 4.5474C22.5403 4.52495 22.406 4.51873 22.2911 4.51563C22.2251 4.51383 22.1595 4.51312 22.0938 4.51266Z" fill="black"/>
</svg>
