<svg width="24" height="24" viewBox="0 0 24 24" fill="none" xmlns="http://www.w3.org/2000/svg">
<path fill-rule="evenodd" clip-rule="evenodd" d="M6.75 10C6.75 7.1005 9.10051 4.75 12 4.75C14.8995 4.75 17.25 7.10051 17.25 10V14C17.25 14.1481 17.2938 14.2928 17.376 14.416L18.5986 16.25H18H15.75H15H9H8.25H6H5.40139L6.62404 14.416C6.70617 14.2928 6.75 14.1481 6.75 14V10ZM8.32501 17.75H6H4C3.7234 17.75 3.46926 17.5978 3.33875 17.3539C3.20823 17.11 3.22254 16.8141 3.37596 16.584L5.25 13.7729V10C5.25 6.27208 8.27208 3.25 12 3.25C15.7279 3.25 18.75 6.27208 18.75 10V13.7729L20.624 16.584C20.7775 16.8141 20.7918 17.11 20.6613 17.3539C20.5307 17.5978 20.2766 17.75 20 17.75H18H15.675C15.3275 19.4617 13.8142 20.75 12 20.75C10.1858 20.75 8.67247 19.4617 8.32501 17.75ZM9.87803 17.75C10.1869 18.6239 11.0203 19.25 12 19.25C12.9797 19.25 13.8131 18.6239 14.122 17.75H9.87803Z" fill="black"/>
</svg>
