<svg width="24" height="24" viewBox="0 0 24 24" fill="none" xmlns="http://www.w3.org/2000/svg">
<path d="M4.26562 16.5312C4.26562 17.2578 4.79688 17.75 5.66406 17.75H8.8125C8.88281 19.2344 10.1328 20.6328 12 20.6328C13.8672 20.6328 15.1172 19.2344 15.1875 17.75H18.3359C19.2031 17.75 19.7344 17.2578 19.7344 16.5312C19.7344 15.6641 19 14.9453 18.2734 14.2656C17.7031 13.7422 17.5859 12.7109 17.4531 11.5625C17.4375 11.1641 17.4141 10.7891 17.3672 10.4297C16.8438 10.6641 16.1953 10.75 15.625 10.6484C15.6641 10.9688 15.6875 11.3281 15.6953 11.7266C15.7812 13.1797 16.0391 14.3906 16.5469 15C16.9141 15.4297 17.3281 15.8203 17.5781 16.0391V16.125H6.39062V16.0391C6.64062 15.8203 7.08594 15.4297 7.45312 15C7.96875 14.3906 8.21094 13.1797 8.29688 11.7266C8.41406 8.74219 9.35156 7.69531 10.5547 7.38281C10.7422 7.33594 10.8516 7.24219 10.8672 7.02344C10.9219 6.24219 11.3359 5.73438 12 5.73438C12.125 5.73438 12.2422 5.75 12.3438 5.78906C12.4766 5.24219 12.7578 4.75 13.1328 4.35938C12.7969 4.17969 12.4141 4.07812 12 4.07812C10.8281 4.07812 9.9375 4.85156 9.61719 5.90625C7.60156 6.63281 6.70312 8.60156 6.5625 11.4688C6.42969 12.6797 6.30469 13.7344 5.72656 14.2656C5 14.9453 4.26562 15.6641 4.26562 16.5312ZM15.9453 9.60938C17.4141 9.60938 18.6328 8.39844 18.6328 6.92188C18.6328 5.44531 17.4141 4.23438 15.9453 4.23438C14.4688 4.23438 13.2578 5.44531 13.2578 6.92188C13.2578 8.39844 14.4688 9.60938 15.9453 9.60938ZM10.4844 17.75H13.5156C13.4609 18.6719 12.8438 19.2656 12 19.2656C11.1562 19.2656 10.5391 18.6719 10.4844 17.75Z" fill="black"/>
</svg>
