<svg width="24" height="24" viewBox="0 0 24 24" fill="none" xmlns="http://www.w3.org/2000/svg">
<path d="M16.5078 6.41406H15.4922C15.4609 4.59375 13.9141 3.10938 12 3.10938C10.0781 3.10938 8.53906 4.59375 8.50781 6.41406H7.49219C5.76562 6.41406 4.84375 7.32812 4.84375 9.03906V11.9531C5.125 11.8984 5.41406 11.8672 5.71094 11.8672C6.00781 11.8672 6.29688 11.8984 6.58594 11.9531V9.21875C6.58594 8.5 6.95312 8.15625 7.64062 8.15625H16.3594C17.0391 8.15625 17.4141 8.5 17.4141 9.21875V16.9297C17.4141 17.6484 17.0391 18 16.5234 18H10.7891C10.7031 18.625 10.4766 19.2188 10.1484 19.7344H16.6719C18.2422 19.7344 19.1562 18.8281 19.1562 17.1172V9.03906C19.1562 7.32812 18.2344 6.41406 16.5078 6.41406ZM12 4.60938C13.0469 4.60938 13.8125 5.40625 13.8359 6.41406H10.1562C10.1875 5.40625 10.9531 4.60938 12 4.60938ZM5.71094 21.125C7.92188 21.125 9.77344 19.2734 9.77344 17.0547C9.77344 14.8359 7.9375 13 5.71094 13C3.49219 13 1.65625 14.8359 1.65625 17.0547C1.65625 19.2891 3.49219 21.125 5.71094 21.125ZM5.71094 19.6562C5.36719 19.6562 5.14062 19.4297 5.14062 19.0859V17.6328H3.69531C3.35938 17.6328 3.125 17.4062 3.125 17.0625C3.11719 16.7109 3.35156 16.4844 3.69531 16.4844H5.14062V15.0469C5.14062 14.7031 5.36719 14.4766 5.71094 14.4688C6.0625 14.4688 6.28906 14.7031 6.28906 15.0469V16.4844H7.73438C8.07812 16.4844 8.30469 16.7109 8.30469 17.0625C8.30469 17.4062 8.07812 17.6328 7.73438 17.6328H6.28906V19.0859C6.28906 19.4297 6.0625 19.6562 5.71094 19.6562Z" fill="black"/>
</svg>
