<svg width="24" height="24" viewBox="0 0 24 24" fill="none" xmlns="http://www.w3.org/2000/svg">
<path fill-rule="evenodd" clip-rule="evenodd" d="M12 4C8.68629 4 6 6.68629 6 10V14.1111L4 17H6H18H20L18 14.1111V10C18 6.68629 15.3137 4 12 4Z" fill="black"/>
<path d="M6 14.1111L6.61664 14.538C6.70348 14.4126 6.75 14.2637 6.75 14.1111H6ZM4 17L3.38336 16.5731C3.22457 16.8025 3.2062 17.101 3.33567 17.3481C3.46513 17.5952 3.72104 17.75 4 17.75V17ZM20 17V17.75C20.279 17.75 20.5349 17.5952 20.6643 17.3481C20.7938 17.101 20.7754 16.8025 20.6166 16.5731L20 17ZM18 14.1111H17.25C17.25 14.2637 17.2965 14.4126 17.3834 14.538L18 14.1111ZM6.75 10C6.75 7.1005 9.10051 4.75 12 4.75V3.25C8.27208 3.25 5.25 6.27208 5.25 10H6.75ZM6.75 14.1111V10H5.25V14.1111H6.75ZM4.61664 17.4269L6.61664 14.538L5.38336 13.6842L3.38336 16.5731L4.61664 17.4269ZM6 16.25H4V17.75H6V16.25ZM18 16.25H6V17.75H18V16.25ZM20 16.25H18V17.75H20V16.25ZM17.3834 14.538L19.3834 17.4269L20.6166 16.5731L18.6166 13.6842L17.3834 14.538ZM17.25 10V14.1111H18.75V10H17.25ZM12 4.75C14.8995 4.75 17.25 7.10051 17.25 10H18.75C18.75 6.27208 15.7279 3.25 12 3.25V4.75Z" fill="black"/>
<path d="M15.4384 18.5C14.8598 19.8244 13.5382 20.75 12.0005 20.75C10.4627 20.75 9.14117 19.8244 8.5625 18.5H15.4384Z" fill="black"/>
</svg>
