<svg width="24" height="24" viewBox="0 0 24 24" fill="none" xmlns="http://www.w3.org/2000/svg">
<path d="M16.4766 6.63281H15.2266C15.1875 4.99219 13.7578 3.59375 11.9922 3.59375C10.2266 3.59375 8.79688 4.99219 8.75781 6.63281H7.51562C5.88281 6.63281 5.0625 7.4375 5.0625 9.05469V12.0234C7.82812 12.0234 10.1094 14.2969 10.1094 17.0625C10.1094 17.9688 9.85938 18.8203 9.42969 19.5625H16.7109C18.1094 19.5625 18.9297 18.75 18.9297 17.1406V9.05469C18.9297 7.44531 18.1016 6.63281 16.4766 6.63281ZM11.9922 4.78125C13.0938 4.78125 13.9297 5.60938 13.9688 6.63281H10.0156C10.0547 5.60938 10.8906 4.78125 11.9922 4.78125ZM5.07031 21.0312C7.21875 21.0312 9.03906 19.2266 9.03906 17.0547C9.03906 14.8828 7.24219 13.0859 5.07031 13.0859C2.89062 13.0859 1.10156 14.8828 1.10156 17.0547C1.10156 19.2422 2.89062 21.0312 5.07031 21.0312ZM5.07031 19.5469C4.77344 19.5469 4.58594 19.3516 4.58594 19.0625V17.5391H3.0625C2.77344 17.5391 2.57812 17.3516 2.57812 17.0547C2.57812 16.7656 2.77344 16.5781 3.0625 16.5781H4.58594V15.0547C4.58594 14.7656 4.77344 14.5781 5.07031 14.5781C5.35938 14.5781 5.54688 14.7656 5.54688 15.0547V16.5781H7.07031C7.35938 16.5781 7.55469 16.7656 7.55469 17.0547C7.55469 17.3516 7.35938 17.5391 7.07031 17.5391H5.54688V19.0625C5.54688 19.3516 5.35938 19.5469 5.07031 19.5469Z" fill="black"/>
</svg>
