<svg width="24" height="24" viewBox="0 0 24 24" fill="none" xmlns="http://www.w3.org/2000/svg">
<path fill-rule="evenodd" clip-rule="evenodd" d="M12 20C16.4183 20 20 16.4183 20 12C20 7.58172 16.4183 4 12 4C7.58172 4 4 7.58172 4 12C4 16.4183 7.58172 20 12 20ZM8.58076 8.58088C8.87365 8.28798 9.34852 8.28798 9.64142 8.58088L12.0019 10.9413L14.3624 8.58088C14.6553 8.28798 15.1301 8.28798 15.423 8.58088C15.7159 8.87377 15.7159 9.34864 15.423 9.64154L13.0626 12.002L15.423 14.3625C15.7159 14.6554 15.7159 15.1302 15.423 15.4231C15.1301 15.716 14.6553 15.716 14.3624 15.4231L12.0019 13.0627L9.64142 15.4231C9.34852 15.716 8.87365 15.716 8.58076 15.4231C8.28786 15.1302 8.28787 14.6554 8.58076 14.3625L10.9412 12.002L8.58076 9.64154C8.28787 9.34864 8.28786 8.87377 8.58076 8.58088Z" fill="black"/>
</svg>
