<svg width="24" height="24" viewBox="0 0 24 24" fill="none" xmlns="http://www.w3.org/2000/svg">
<g clip-path="url(#clip0_6805_28137)">
<path fill-rule="evenodd" clip-rule="evenodd" d="M3.51347 4.25C2.76651 4.25 2.25 4.88358 2.25 5.55121V18.4488C2.25 19.1164 2.76651 19.75 3.51347 19.75H5.89232C6.10036 19.75 6.29905 19.6636 6.44091 19.5114L7.30844 18.5808L8.17598 19.5114C8.31784 19.6636 8.51653 19.75 8.72457 19.75H20.4865C21.2335 19.75 21.75 19.1164 21.75 18.4488V5.55121C21.75 4.88358 21.2335 4.25 20.4865 4.25H8.72457C8.51653 4.25 8.31784 4.33641 8.17598 4.48858L7.30844 5.41918L6.44091 4.48858C6.29905 4.33641 6.10036 4.25 5.89232 4.25H3.51347ZM8 8.5H6.5V10H8V8.5ZM6.5 11.25H8V12.75H6.5V11.25ZM8 14H6.5V15.5H8V14Z" fill="black"/>
</g>
<defs>
<clipPath id="clip0_6805_28137">
<rect width="24" height="24" fill="white"/>
</clipPath>
</defs>
</svg>
