<svg width="24" height="24" viewBox="0 0 24 24" fill="none" xmlns="http://www.w3.org/2000/svg">
<path fill-rule="evenodd" clip-rule="evenodd" d="M5.75 8.86988V9.66724C3.40997 10.5705 1.75 12.8414 1.75 15.5C1.75 18.9518 4.54822 21.75 8 21.75C9.25064 21.75 10.4155 21.3827 11.3925 20.75H12.0234H12.6302H18.75H19.5C19.9142 20.75 20.25 20.4142 20.25 20V19.25V4.75V4C20.25 3.58579 19.9142 3.25 19.5 3.25H18.75H7.25H6.5C6.08579 3.25 5.75 3.58579 5.75 4V4.75V8.86988ZM8 9.25C7.74618 9.25 7.4959 9.26513 7.25 9.29454V6.25V4.75H8.75H17.25H18.75V6.25V17.75V19.25H17.25H13.0005C13.6435 18.3939 14.0719 17.3672 14.2055 16.25H16.25C16.6642 16.25 17 15.9142 17 15.5C17 15.0858 16.6642 14.75 16.25 14.75H14.2055C14.1205 14.0399 13.9166 13.3664 13.6141 12.75H16.25C16.6642 12.75 17 12.4142 17 12C17 11.5858 16.6642 11.25 16.25 11.25H12.5826C11.4412 10.0198 9.8105 9.25 8 9.25ZM8 10.75C5.37665 10.75 3.25 12.8766 3.25 15.5C3.25 18.1234 5.37665 20.25 8 20.25C10.6234 20.25 12.75 18.1234 12.75 15.5C12.75 12.8766 10.6234 10.75 8 10.75ZM9.75 7.75C9.33579 7.75 9 8.08579 9 8.5C9 8.91421 9.33579 9.25 9.75 9.25H16.25C16.6642 9.25 17 8.91421 17 8.5C17 8.08579 16.6642 7.75 16.25 7.75H9.75Z" fill="black"/>
<path fill-rule="evenodd" clip-rule="evenodd" d="M10.0303 14.5303C10.3232 14.2374 10.3232 13.7626 10.0303 13.4697C9.73744 13.1768 9.26256 13.1768 8.96967 13.4697L8.00049 14.4389L7.03131 13.4697C6.73841 13.1768 6.26354 13.1768 5.97065 13.4697C5.67775 13.7626 5.67775 14.2374 5.97065 14.5303L6.93983 15.4995L5.96967 16.4697C5.67678 16.7626 5.67678 17.2374 5.96967 17.5303C6.26256 17.8232 6.73744 17.8232 7.03033 17.5303L8.00049 16.5602L8.97065 17.5303C9.26354 17.8232 9.73841 17.8232 10.0313 17.5303C10.3242 17.2374 10.3242 16.7626 10.0313 16.4697L9.06115 15.4995L10.0303 14.5303Z" fill="black"/>
</svg>
