<svg width="24" height="24" viewBox="0 0 24 24" fill="none" xmlns="http://www.w3.org/2000/svg">
<path d="M16.2043 7.13706L15.0205 5.23122C14.771 4.93488 14.429 4.75 14.0457 4.75H9.95433C9.57099 4.75 9.229 4.93488 8.97952 5.23122L7.7957 7.13706C7.54621 7.43386 7.22469 7.65 6.84135 7.65H4.17308C3.79565 7.65 3.43369 7.80277 3.16681 8.0747C2.89993 8.34662 2.75 8.71544 2.75 9.1V17.8C2.75 18.1846 2.89993 18.5534 3.16681 18.8253C3.43369 19.0972 3.79565 19.25 4.17308 19.25H19.8269C20.2043 19.25 20.5663 19.0972 20.8332 18.8253C21.1001 18.5534 21.25 18.1846 21.25 17.8V9.1C21.25 8.71544 21.1001 8.34662 20.8332 8.0747C20.5663 7.80277 20.2043 7.65 19.8269 7.65H17.2031C16.8184 7.65 16.4538 7.43386 16.2043 7.13706Z" stroke="black" stroke-width="1.5" stroke-linecap="round" stroke-linejoin="round"/>
<path d="M12 16.75C14.0711 16.75 15.75 15.0711 15.75 13C15.75 10.9289 14.0711 9.25 12 9.25C9.92893 9.25 8.25 10.9289 8.25 13C8.25 15.0711 9.92893 16.75 12 16.75Z" stroke="black" stroke-width="1.5" stroke-miterlimit="10"/>
</svg>
