<svg width="24" height="24" viewBox="0 0 24 24" fill="none" xmlns="http://www.w3.org/2000/svg">
<path d="M12 16C13.6569 16 15 14.6569 15 13C15 11.3431 13.6569 10 12 10C10.3431 10 9 11.3431 9 13C9 14.6569 10.3431 16 12 16Z" fill="black"/>
<path fill-rule="evenodd" clip-rule="evenodd" d="M9.6 3.75C9.37216 3.75 9.15668 3.85357 9.01435 4.03148L7.63953 5.75H3C2.58579 5.75 2.25 6.08579 2.25 6.5V19.5C2.25 19.9142 2.58579 20.25 3 20.25H21C21.4142 20.25 21.75 19.9142 21.75 19.5V6.5C21.75 6.08579 21.4142 5.75 21 5.75H16.3605L14.9857 4.03148C14.8433 3.85357 14.6278 3.75 14.4 3.75H9.6ZM12 17.5C14.4853 17.5 16.5 15.4853 16.5 13C16.5 10.5147 14.4853 8.5 12 8.5C9.51472 8.5 7.5 10.5147 7.5 13C7.5 15.4853 9.51472 17.5 12 17.5Z" fill="black"/>
</svg>
