<svg width="24" height="24" viewBox="0 0 24 24" fill="none" xmlns="http://www.w3.org/2000/svg">
<path fill-rule="evenodd" clip-rule="evenodd" d="M10.7709 17.0228C11.0551 17.0228 11.3009 16.8923 11.4852 16.6081L16.6465 8.52051C16.7617 8.35154 16.8616 8.14417 16.8616 7.95984C16.8616 7.55277 16.5006 7.29932 16.1242 7.29932C15.9015 7.29932 15.6788 7.42988 15.5098 7.69102L10.7325 15.287L8.19028 12.0996C7.99058 11.8462 7.78321 11.754 7.53744 11.754C7.16109 11.754 6.84619 12.0535 6.84619 12.4606C6.84619 12.6526 6.923 12.86 7.05356 13.0213L10.0182 16.6158C10.2563 16.9076 10.4867 17.0228 10.7709 17.0228Z" fill="black"/>
</svg>
