<svg width="24" height="24" viewBox="0 0 24 24" fill="none" xmlns="http://www.w3.org/2000/svg">
<path fill-rule="evenodd" clip-rule="evenodd" d="M11.6491 2.33716C11.8686 2.22095 12.1314 2.22095 12.3509 2.33716L20.3509 6.57245C20.5964 6.70244 20.75 6.95749 20.75 7.23529V16.7647C20.75 17.0425 20.5964 17.2976 20.3509 17.4275L12.3509 21.6628C12.1314 21.7791 11.8686 21.7791 11.6491 21.6628L3.64908 17.4275C3.40356 17.2976 3.25 17.0425 3.25 16.7647V7.23529C3.25 6.95749 3.40356 6.70244 3.64908 6.57245L11.6491 2.33716ZM4.75 16.3131V8.25566L11.25 11.7557V19.7543L4.75 16.3131ZM19.25 16.3131L12.75 19.7543V11.7557L19.25 8.25566V16.3131ZM15.688 5.80111L18.1873 7.12425L12 10.4559L9.45147 9.08359L15.688 5.80111ZM14.0824 4.95109L12 3.84862L5.8127 7.12425L7.85953 8.22639L14.0824 4.95109Z" fill="black"/>
</svg>
