<svg width="24" height="24" viewBox="0 0 24 24" fill="none" xmlns="http://www.w3.org/2000/svg">
<path fill-rule="evenodd" clip-rule="evenodd" d="M11.4697 14.5303C11.7626 14.8232 12.2374 14.8232 12.5303 14.5303L16.0303 11.0303C16.3232 10.7374 16.3232 10.2626 16.0303 9.96967C15.7374 9.67678 15.2626 9.67678 14.9697 9.96967L12.75 12.1893L12.75 5.5C12.75 5.08579 12.4142 4.75 12 4.75C11.5858 4.75 11.25 5.08579 11.25 5.5L11.25 12.1893L9.03033 9.96967C8.73744 9.67678 8.26256 9.67678 7.96967 9.96967C7.67678 10.2626 7.67678 10.7374 7.96967 11.0303L11.4697 14.5303ZM6.25 13.5C6.25 13.0858 5.91421 12.75 5.5 12.75C5.08579 12.75 4.75 13.0858 4.75 13.5V18.5C4.75 18.9142 5.08579 19.25 5.5 19.25H18.5C18.9142 19.25 19.25 18.9142 19.25 18.5V13.5C19.25 13.0858 18.9142 12.75 18.5 12.75C18.0858 12.75 17.75 13.0858 17.75 13.5V17.75H6.25V13.5Z" fill="black"/>
</svg>
