<svg width="24" height="24" viewBox="0 0 24 24" fill="none" xmlns="http://www.w3.org/2000/svg">
<g clip-path="url(#clip0_6405_28456)">
<path d="M21 20H3L12 4L21 20Z" stroke="black" stroke-width="1.5" stroke-linejoin="round"/>
<path fill-rule="evenodd" clip-rule="evenodd" d="M12 4L3 20H21L12 4ZM12.2129 15.4121C12.4824 15.4121 12.7035 15.1984 12.7126 14.9289L12.8781 10.0168C12.8876 9.73426 12.6611 9.5 12.3784 9.5H11.608C11.3252 9.5 11.0987 9.73426 11.1082 10.0168L11.2738 14.9289C11.2828 15.1984 11.5039 15.4121 11.7735 15.4121H12.2129ZM12.6787 16.5898C12.5068 16.4219 12.2783 16.3379 11.9932 16.3379C11.7119 16.3379 11.4834 16.4238 11.3076 16.5957C11.1357 16.7637 11.0498 16.9766 11.0498 17.2344C11.0498 17.4922 11.1357 17.7051 11.3076 17.873C11.4834 18.041 11.7119 18.125 11.9932 18.125C12.2783 18.125 12.5068 18.041 12.6787 17.873C12.8545 17.7051 12.9424 17.4922 12.9424 17.2344C12.9424 16.9727 12.8545 16.7578 12.6787 16.5898Z" fill="black"/>
</g>
<defs>
<clipPath id="clip0_6405_28456">
<rect width="24" height="24" fill="white"/>
</clipPath>
</defs>
</svg>
