<svg width="24" height="24" viewBox="0 0 24 24" fill="none" xmlns="http://www.w3.org/2000/svg">
<path fill-rule="evenodd" clip-rule="evenodd" d="M15.9729 3.7174C15.6871 3.41757 15.2124 3.40619 14.9126 3.69198L4.5383 13.5804C4.39905 13.7132 4.31613 13.8943 4.30668 14.0865L4.11227 18.037C4.10217 18.2422 4.17671 18.4426 4.31847 18.5913C4.46024 18.74 4.65681 18.8241 4.86228 18.8238L7.73548 18.8203H17.5595C17.9737 18.8203 18.3095 18.4845 18.3095 18.0703C18.3095 17.6561 17.9737 17.3203 17.5595 17.3203H10.6891L19.7084 8.72341C20.0082 8.43762 20.0196 7.96288 19.7338 7.66305L15.9729 3.7174ZM7.73422 17.3203L8.51609 17.3194L18.1306 8.1551L15.4046 5.29522L5.79014 14.4595L5.64922 17.3229L6.96192 17.3213C6.97453 17.3206 6.98722 17.3203 6.99999 17.3203H7.73422Z" fill="black"/>
</svg>
