<svg width="24" height="24" viewBox="0 0 24 24" fill="none" xmlns="http://www.w3.org/2000/svg">
<g clip-path="url(#clip0_7533_31526)">
<path fill-rule="evenodd" clip-rule="evenodd" d="M20.0973 18.9697C20.3902 19.2626 20.3902 19.7374 20.0973 20.0303C19.8044 20.3232 19.3296 20.3232 19.0367 20.0303L16.6401 17.6337C15.2001 18.3559 13.6251 18.75 12 18.75C7.91047 18.75 4.13839 16.2544 2.03631 12.3151C1.91855 12.0944 1.91856 11.8295 2.03635 11.6088C3.04408 9.72086 4.43561 8.16444 6.06191 7.05557L3.96967 4.96333C3.67678 4.67044 3.67678 4.19556 3.96967 3.90267C4.26256 3.60978 4.73744 3.60978 5.03033 3.90267L7.39925 6.27159C8.82856 5.56196 10.3897 5.175 12 5.175C16.0895 5.175 19.8616 7.67059 21.9636 11.6088C22.0814 11.8295 22.0814 12.0944 21.9637 12.3151C20.9632 14.19 19.5843 15.7379 17.973 16.8454L20.0973 18.9697ZM15.5118 16.5055C14.3958 16.9918 13.2071 17.25 12 17.25C8.66242 17.25 5.46538 15.2763 3.55556 11.962C4.48896 10.3427 5.72984 9.04332 7.14432 8.13797L15.5118 16.5055ZM8.52932 7.40166C9.63344 6.92686 10.8077 6.675 12 6.675C15.3376 6.675 18.5346 8.6487 20.4444 11.9621C19.5189 13.5682 18.2911 14.8594 16.8915 15.7639L15.1551 14.0274C15.5313 13.4429 15.75 12.7464 15.75 12C15.75 9.92893 14.0711 8.25 12 8.25C11.2536 8.25 10.5571 8.46868 9.97257 8.84491L8.52932 7.40166ZM11.0755 9.94787C11.3574 9.82065 11.6702 9.75 12 9.75C13.2426 9.75 14.25 10.7574 14.25 12C14.25 12.3298 14.1793 12.6426 14.0521 12.9245L11.0755 9.94787Z" fill="black"/>
</g>
<defs>
<clipPath id="clip0_7533_31526">
<rect width="24" height="24" fill="white"/>
</clipPath>
</defs>
</svg>
