<svg width="24" height="24" viewBox="0 0 24 24" fill="none" xmlns="http://www.w3.org/2000/svg">
<path fill-rule="evenodd" clip-rule="evenodd" d="M12 4L4 12.208V20H9.5V14.25H14.5V20H20V12.208L12 4Z" fill="black"/>
<path d="M4 12.208L3.46291 11.6845C3.3264 11.8246 3.25 12.0124 3.25 12.208H4ZM12 4L12.5371 3.47652C12.3959 3.33168 12.2022 3.25 12 3.25C11.7978 3.25 11.6041 3.33168 11.4629 3.47652L12 4ZM4 20H3.25C3.25 20.4142 3.58579 20.75 4 20.75V20ZM9.5 20V20.75C9.91421 20.75 10.25 20.4142 10.25 20H9.5ZM9.5 14.25V13.5C9.08579 13.5 8.75 13.8358 8.75 14.25H9.5ZM14.5 14.25H15.25C15.25 13.8358 14.9142 13.5 14.5 13.5V14.25ZM14.5 20H13.75C13.75 20.4142 14.0858 20.75 14.5 20.75V20ZM20 20V20.75C20.4142 20.75 20.75 20.4142 20.75 20H20ZM20 12.208H20.75C20.75 12.0124 20.6736 11.8246 20.5371 11.6845L20 12.208ZM4.53709 12.7315L12.5371 4.52348L11.4629 3.47652L3.46291 11.6845L4.53709 12.7315ZM4.75 20V12.208H3.25V20H4.75ZM9.5 19.25H4V20.75H9.5V19.25ZM10.25 20V14.25H8.75V20H10.25ZM9.5 15H14.5V13.5H9.5V15ZM13.75 14.25V20H15.25V14.25H13.75ZM20 19.25H14.5V20.75H20V19.25ZM19.25 12.208V20H20.75V12.208H19.25ZM11.4629 4.52348L19.4629 12.7315L20.5371 11.6845L12.5371 3.47652L11.4629 4.52348Z" fill="black"/>
</svg>
