<svg width="24" height="24" viewBox="0 0 24 24" fill="none" xmlns="http://www.w3.org/2000/svg">
<path d="M9.25322 5.86507C8.89452 5.86507 8.56869 5.78137 8.27575 5.61397C7.9828 5.4406 7.74964 5.20744 7.57627 4.9145C7.40289 4.62155 7.31621 4.29573 7.31621 3.93702C7.31621 3.57831 7.40289 3.25249 7.57627 2.95954C7.74964 2.6666 7.9828 2.43344 8.27575 2.26006C8.56869 2.08669 8.89452 2 9.25322 2C9.61193 2 9.93776 2.08669 10.2307 2.26006C10.5236 2.43344 10.7568 2.6666 10.9302 2.95954C11.1036 3.25249 11.1902 3.57831 11.1902 3.93702C11.1902 4.29573 11.1036 4.62155 10.9302 4.9145C10.7568 5.20744 10.5236 5.4406 10.2307 5.61397C9.93776 5.78137 9.61193 5.86507 9.25322 5.86507ZM6.15938 21.9979C5.87241 21.9979 5.65121 21.8873 5.49577 21.6661C5.34631 21.4449 5.31342 21.1938 5.39712 20.9128C5.40908 20.871 5.44794 20.7036 5.5137 20.4106C5.58544 20.1177 5.67512 19.747 5.78273 19.2987C5.89034 18.8503 6.00394 18.366 6.1235 17.8459C6.24905 17.3258 6.36563 16.8176 6.47324 16.3214C6.58683 15.8192 6.68548 15.3738 6.76918 14.9852C6.85288 14.5906 6.90967 14.3007 6.93956 14.1153C6.98141 13.8702 7.01429 13.5743 7.03821 13.2275C7.06212 12.8808 7.08006 12.5191 7.09201 12.1424C7.10995 11.7658 7.12191 11.4071 7.12788 11.0663C7.13386 10.7256 7.13685 10.4386 7.13685 10.2054C7.13685 10.1337 7.10397 10.0888 7.03821 10.0709C6.97842 10.047 6.92761 10.0649 6.88576 10.1247C6.71836 10.3639 6.52406 10.6389 6.30286 10.9497C6.08166 11.2546 5.86344 11.5595 5.64822 11.8644C5.43299 12.1693 5.24168 12.4354 5.07429 12.6626C4.91287 12.8898 4.79928 13.0392 4.73351 13.111C4.60199 13.2604 4.43758 13.3501 4.24029 13.38C4.04898 13.4099 3.86664 13.374 3.69326 13.2724C3.4601 13.1528 3.31363 12.9884 3.25385 12.7792C3.20004 12.5639 3.22097 12.3696 3.31662 12.1963C3.35249 12.1305 3.39135 12.0647 3.4332 11.999C3.48103 11.9272 3.52886 11.8585 3.57668 11.7927L5.89931 8.37602C6.14443 8.01133 6.41645 7.7154 6.71537 7.48822C7.02027 7.25506 7.37599 7.08467 7.78252 6.97706C8.19504 6.86347 8.68527 6.80668 9.25322 6.80668C9.82118 6.80668 10.3084 6.86347 10.715 6.97706C11.1215 7.08467 11.4742 7.25506 11.7731 7.48822C12.078 7.7154 12.356 8.01133 12.6071 8.37602L13.9971 10.4027C13.6205 10.4087 13.3126 10.5342 13.0735 10.7794C12.8343 11.0185 12.6878 11.2726 12.634 11.5416L11.6207 10.1247C11.5729 10.0649 11.5191 10.044 11.4593 10.0619C11.3995 10.0799 11.3696 10.1247 11.3696 10.1965C11.3696 10.4296 11.3726 10.7196 11.3786 11.0663C11.3845 11.4071 11.3935 11.7658 11.4055 12.1424C11.4234 12.5191 11.4443 12.8808 11.4682 13.2275C11.4922 13.5743 11.522 13.8702 11.5579 14.1153C11.5878 14.3007 11.6446 14.5906 11.7283 14.9852C11.812 15.3738 11.9106 15.8192 12.0242 16.3214C12.1378 16.8176 12.2544 17.3258 12.374 17.8459C12.4995 18.366 12.6131 18.8503 12.7147 19.2987C12.8224 19.747 12.912 20.1177 12.9838 20.4106C13.0555 20.7036 13.0974 20.871 13.1093 20.9128C13.193 21.1938 13.1572 21.4449 13.0017 21.6661C12.8523 21.8873 12.634 21.9979 12.3471 21.9979C11.9166 21.9979 11.6297 21.7349 11.4862 21.2088C11.4264 20.9876 11.3457 20.6767 11.244 20.2761C11.1424 19.8816 11.0288 19.4451 10.9033 18.9668C10.7837 18.4886 10.6641 18.0163 10.5446 17.55C10.425 17.0777 10.3144 16.6532 10.2128 16.2765C10.1111 15.8999 10.0304 15.6219 9.97064 15.4426C9.869 15.1197 9.77036 14.8895 9.6747 14.752C9.57905 14.6145 9.43856 14.5458 9.25322 14.5458C9.06789 14.5458 8.9274 14.6145 8.83174 14.752C8.73609 14.8895 8.63744 15.1197 8.53581 15.4426C8.47603 15.6219 8.39532 15.8999 8.29368 16.2765C8.19205 16.6532 8.07846 17.0777 7.95291 17.55C7.83334 18.0163 7.71377 18.4886 7.5942 18.9668C7.47463 19.4451 7.36403 19.8816 7.2624 20.2761C7.16077 20.6767 7.08006 20.9876 7.02027 21.2088C6.87679 21.7349 6.58982 21.9979 6.15938 21.9979ZM16.795 12.0617C16.4005 12.0617 16.0627 11.9212 15.7817 11.6403C15.5007 11.3593 15.3602 11.0215 15.3602 10.6269C15.3602 10.2323 15.5007 9.89455 15.7817 9.61356C16.0627 9.33257 16.4005 9.19208 16.795 9.19208C17.1896 9.19208 17.5274 9.33257 17.8084 9.61356C18.0954 9.89455 18.2388 10.2323 18.2388 10.6269C18.2388 11.0215 18.0954 11.3593 17.8084 11.6403C17.5274 11.9212 17.1896 12.0617 16.795 12.0617ZM14.8042 21.9979C14.5471 21.9979 14.3528 21.8993 14.2213 21.702C14.0898 21.5047 14.0539 21.2895 14.1137 21.0563C14.1257 21.0264 14.1615 20.8859 14.2213 20.6348C14.2811 20.3897 14.3528 20.0848 14.4365 19.7201C14.5202 19.3614 14.6069 18.9878 14.6966 18.5992C14.7863 18.2166 14.864 17.8698 14.9298 17.5589C15.0015 17.248 15.0493 17.0209 15.0732 16.8774C15.1031 16.692 15.1241 16.4619 15.136 16.1869C15.154 15.9059 15.1659 15.6339 15.1719 15.3708C15.1779 15.1078 15.1809 14.9015 15.1809 14.752C15.1809 14.6205 15.1599 14.5099 15.1181 14.4202C15.0822 14.3246 15.0284 14.2319 14.9567 14.1422C14.7414 13.8732 14.5173 13.6042 14.2841 13.3351C14.0569 13.0661 13.8596 12.833 13.6922 12.6357C13.5248 12.4384 13.4232 12.3128 13.3873 12.259C13.2857 12.1036 13.2468 11.9422 13.2707 11.7748C13.3006 11.6014 13.3784 11.4519 13.5039 11.3264C13.6354 11.1709 13.8028 11.0932 14.0061 11.0932C14.2094 11.0872 14.3708 11.147 14.4903 11.2726L15.4409 12.2859C15.6442 12.5012 15.8295 12.6596 15.9969 12.7612C16.1643 12.8569 16.4005 12.9047 16.7054 12.9047H17.0192C17.4317 12.9047 17.8263 12.9914 18.203 13.1648C18.5856 13.3322 18.9054 13.6131 19.1625 14.0077L20.6511 16.3034C20.7647 16.4708 20.8006 16.6323 20.7588 16.7877C20.7169 16.9372 20.6362 17.0537 20.5166 17.1374C20.3911 17.2331 20.2416 17.272 20.0682 17.254C19.8949 17.2361 19.7484 17.1404 19.6288 16.9671L18.481 15.308C18.4391 15.2483 18.3853 15.2273 18.3195 15.2453C18.2598 15.2632 18.2299 15.308 18.2299 15.3798C18.2299 15.5352 18.2388 15.7714 18.2568 16.0882C18.2747 16.3991 18.3016 16.6622 18.3375 16.8774C18.3614 17.0209 18.4062 17.248 18.472 17.5589C18.5437 17.8698 18.6215 18.2166 18.7052 18.5992C18.7948 18.9878 18.8815 19.3614 18.9652 19.7201C19.0549 20.0848 19.1296 20.3897 19.1894 20.6348C19.2492 20.8859 19.2821 21.0264 19.2881 21.0563C19.3478 21.2895 19.312 21.5047 19.1804 21.702C19.0489 21.8993 18.8576 21.9979 18.6065 21.9979C18.4331 21.9979 18.2807 21.9441 18.1492 21.8365C18.0176 21.7349 17.925 21.5735 17.8712 21.3523C17.8233 21.1849 17.7576 20.9338 17.6739 20.599C17.5902 20.2702 17.5005 19.9144 17.4048 19.5318C17.3092 19.1552 17.2195 18.8084 17.1358 18.4916C17.0581 18.1747 16.9953 17.9445 16.9475 17.8011C16.8877 17.6157 16.8429 17.5051 16.813 17.4692C16.7891 17.4274 16.7532 17.4065 16.7054 17.4065C16.6575 17.4065 16.6187 17.4274 16.5888 17.4692C16.5649 17.5051 16.52 17.6157 16.4543 17.8011C16.4124 17.9445 16.3496 18.1747 16.2659 18.4916C16.1822 18.8084 16.0926 19.1552 15.9969 19.5318C15.9072 19.9144 15.8206 20.2702 15.7369 20.599C15.6532 20.9338 15.5874 21.1849 15.5396 21.3523C15.4858 21.5735 15.3901 21.7349 15.2526 21.8365C15.1211 21.9441 14.9716 21.9979 14.8042 21.9979Z" fill="black"/>
</svg>
