<svg width="24" height="24" viewBox="0 0 24 24" fill="none" xmlns="http://www.w3.org/2000/svg">
<circle cx="12" cy="12" r="9" stroke="black" stroke-width="1.5"/>
<path d="M12.7126 13.1789C12.7035 13.4484 12.4824 13.6621 12.2129 13.6621H11.7735C11.5039 13.6621 11.2828 13.4484 11.2738 13.1789L11.1082 8.26684C11.0987 7.98426 11.3252 7.75 11.608 7.75H12.3784C12.6611 7.75 12.8876 7.98426 12.8781 8.26684L12.7126 13.1789ZM11.9932 14.5879C12.2783 14.5879 12.5068 14.6719 12.6787 14.8398C12.8545 15.0078 12.9424 15.2227 12.9424 15.4844C12.9424 15.7422 12.8545 15.9551 12.6787 16.123C12.5068 16.291 12.2783 16.375 11.9932 16.375C11.7119 16.375 11.4834 16.291 11.3076 16.123C11.1357 15.9551 11.0498 15.7422 11.0498 15.4844C11.0498 15.2266 11.1357 15.0137 11.3076 14.8457C11.4834 14.6738 11.7119 14.5879 11.9932 14.5879Z" fill="black"/>
</svg>
