<svg width="24" height="24" viewBox="0 0 24 24" fill="none" xmlns="http://www.w3.org/2000/svg">
<path d="M15.5 10.5C16.3284 10.5 17 9.82843 17 9C17 8.17157 16.3284 7.5 15.5 7.5C14.6716 7.5 14 8.17157 14 9C14 9.82843 14.6716 10.5 15.5 10.5Z" stroke="black" stroke-width="1.5" stroke-miterlimit="10"/>
<path fill-rule="evenodd" clip-rule="evenodd" d="M3.75 6.68C3.75 5.85481 4.37768 5.25 5.07692 5.25H18.9231C19.6223 5.25 20.25 5.85481 20.25 6.68V14.8973L18.3145 13.1849L18.3137 13.1842C17.9056 12.8242 17.377 12.6328 16.8312 12.6597C16.2858 12.6865 15.7785 12.9286 15.406 13.3245L15.4059 13.3246L14.4274 14.3626L10.6998 10.4156C10.3188 10.0115 9.79759 9.76855 9.23975 9.75102C8.68175 9.73347 8.14632 9.94338 7.7417 10.3245L7.7413 10.3248L3.75 14.0895V6.68ZM2.25 15.8262C2.25 15.8274 2.25 15.8286 2.25 15.8297V17.32C2.25 18.9048 3.48206 20.25 5.07692 20.25H10.6136C10.6147 20.25 10.6158 20.25 10.6169 20.25H18.9231C20.5179 20.25 21.75 18.9048 21.75 17.32V16.5661C21.75 16.5637 21.75 16.5614 21.75 16.559V6.68C21.75 5.09522 20.5179 3.75 18.9231 3.75H5.07692C3.48206 3.75 2.25 5.09522 2.25 6.68V15.8262ZM20.25 16.9001L17.3214 14.3091L17.3211 14.3088C17.1979 14.2003 17.0494 14.1508 16.905 14.1579C16.7602 14.165 16.6141 14.2294 16.4985 14.3524L16.498 14.3529L12.3531 18.75H18.9231C19.6223 18.75 20.25 18.1452 20.25 17.32V16.9001ZM10.2917 18.75L13.3968 15.4559L9.60887 11.4451L9.60844 11.4446C9.49023 11.3192 9.34043 11.2549 9.19262 11.2503C9.04511 11.2456 8.89367 11.3002 8.77042 11.4161L8.77012 11.4164L3.75 16.1514V17.32C3.75 18.1452 4.37768 18.75 5.07692 18.75H10.2917Z" fill="black"/>
</svg>
