<svg width="24" height="24" viewBox="0 0 24 24" fill="none" xmlns="http://www.w3.org/2000/svg">
<path fill-rule="evenodd" clip-rule="evenodd" d="M12 21.75C17.3848 21.75 21.75 17.3848 21.75 12C21.75 6.61522 17.3848 2.25 12 2.25C6.61522 2.25 2.25 6.61522 2.25 12C2.25 17.3848 6.61522 21.75 12 21.75ZM12.271 13.8032C12.5405 13.8032 12.7616 13.5895 12.7707 13.3201L12.9528 7.91528C12.9623 7.63269 12.7358 7.39844 12.4531 7.39844H11.5323C11.2495 7.39844 11.023 7.63269 11.0326 7.91528L11.2147 13.3201C11.2238 13.5895 11.4448 13.8032 11.7144 13.8032H12.271ZM12.7354 15.0791C12.5492 14.8971 12.3016 14.8062 11.9927 14.8062C11.688 14.8062 11.4404 14.8993 11.25 15.0854C11.0638 15.2674 10.9707 15.498 10.9707 15.7773C10.9707 16.0566 11.0638 16.2873 11.25 16.4692C11.4404 16.6512 11.688 16.7422 11.9927 16.7422C12.3016 16.7422 12.5492 16.6512 12.7354 16.4692C12.9258 16.2873 13.021 16.0566 13.021 15.7773C13.021 15.4938 12.9258 15.2611 12.7354 15.0791Z" fill="black"/>
</svg>
