<svg width="24" height="24" viewBox="0 0 24 24" fill="none" xmlns="http://www.w3.org/2000/svg">
<path d="M22.96 12.0951L22.77 11.9752C22.07 11.2852 21.12 10.9752 19.84 11.0552C18.88 11.1151 18.12 11.4552 17.54 11.7852C17.55 11.5252 17.58 11.2652 17.61 11.0051C17.64 10.6651 17.68 10.3151 17.68 9.98515C17.68 9.57515 17.63 9.25515 17.51 8.99515C17.46 8.86515 17.34 8.78515 17.19 8.78515C16.85 8.78515 16.15 9.02515 15.96 9.19515L15.91 9.27515C15.89 9.32515 15.84 9.43515 15.84 9.43515V9.49515C15.82 9.92515 15.74 10.8252 15.68 10.9352L15.61 11.1252C15.47 12.5851 15.47 13.8952 15.6 15.0152C15.63 15.2252 15.93 15.4151 16.09 15.4752C16.38 15.5851 17.18 15.3052 17.26 15.2752C17.29 15.2752 17.32 15.2752 17.35 15.2652C17.53 15.2451 17.65 15.0951 17.64 14.8952V14.6152C17.86 13.7052 18.76 12.6251 19.83 12.4651C20.41 12.3751 20.87 12.5152 21.21 12.8851C21.24 12.9551 21.35 13.5651 20.96 14.2951C20.66 14.8451 20.07 15.3152 19.28 15.6052C18.54 15.8851 17.72 16.0051 16.69 15.9752C16.51 15.8552 15.74 15.3351 15.72 15.3251C14.88 14.7351 13.84 14.0051 12.89 13.6452C12.75 13.5951 12.46 13.3552 12.29 13.2151L12.19 13.1351C11.63 12.6852 10.56 11.9752 9.77 11.4552C9.77 11.4552 9.58 11.3252 9.44 11.2351C9.54 11.1651 9.71 11.0652 9.86 10.9752C10.65 10.5152 10.92 10.3451 11.02 10.2151C11.04 10.2051 11.06 10.1852 11.08 10.1751C11.09 10.1751 11.09 10.1751 12.9 9.14515C14.64 8.19515 16.6 7.11515 17.66 6.02515C17.7 6.00515 17.71 5.96515 17.77 5.76515L17.79 5.63515C17.87 5.38515 17.87 5.17515 17.81 4.94515C17.78 4.84515 17.69 4.71515 17.54 4.69515C16.7 4.61515 15.6 5.11515 14.62 6.02515C14.42 6.21515 14.25 6.30515 14.06 6.40515L13.91 6.48515C12.93 7.03515 10.8 8.36515 9.52 9.17515C9.62 7.86515 9.85001 6.14515 10.13 4.70515V4.67515L10.1 4.45515V4.41515L9.96 4.17515L9.84 3.95515L9.78 3.93515C9.48 3.78515 9.24 3.84515 9.07 3.89515L8.52 4.09515C8.41 4.11515 8.32 4.19515 8.28 4.30515C7.71 5.67515 7.24 7.87515 7.09 9.74515C6.06 9.10515 5.12 8.62515 4.49 8.32515L4.37 8.29515C4.21 8.27515 3.98001 8.13515 3.78 8.01515C3.74001 7.99515 3.34 7.72515 3.34 7.72515C3.34 7.72515 2.56 7.23515 2.51 7.22515C2.46 7.22515 2.4 7.22515 2.4 7.22515H2.37C2.03 7.28515 1.43 7.69515 1.24 7.98515C1.2 8.04515 1.19 8.10515 1.19 8.17515C1.19 8.23515 1.21 8.29515 1.22 8.36515L1.26 8.52515L1.29 8.60515L1.32 8.65515C1.65 8.99515 2.50001 9.57515 3.32 10.0152L5.69 11.2951C5.69 11.2951 5.81 11.3952 5.94 11.4952C5.27 11.9452 3.52 13.1052 3.52 13.1052L2.14 14.0152C2.03 14.0951 1.5 14.3251 1.37 14.3851C1.04 14.5252 0.780005 14.7352 0.670005 14.9752C0.670005 14.9752 0.630005 15.0851 0.630005 15.1251C0.630005 15.1651 0.680005 15.2551 0.680005 15.2551L0.780005 15.3351L0.820005 15.3652C0.820005 15.3652 0.900005 15.4251 0.970005 15.4651L1.12 15.5652L1.17 15.5851C1.17 15.5851 1.33 15.6152 1.34 15.6152H1.37C1.64 15.6152 2 15.4752 2.68 15.1751C3.3 14.9051 4.9 13.9352 5.67 13.4752L5.97 13.2951C6.13 13.2951 6.27 13.1751 6.41 13.0751C6.55 12.9651 6.84 12.7851 7.01 12.7051H7.02C7.06 14.8151 7.18001 16.3651 7.42 17.5751L7.47 17.6852C7.57 17.8351 7.71 18.3552 7.82 18.7951L8.11 19.7451C8.11 19.7451 8.12 19.7752 8.23 19.8752C8.39 19.9852 8.82 20.1551 9.17 20.1551C9.21 20.1551 9.24 20.1551 9.27 20.1551L9.43001 20.1352L9.52 19.9151C9.55 19.7851 9.56 19.6351 9.56 19.4651C9.56 19.2951 9.55 19.1151 9.53 18.8851L9.51 18.5552C9.41 17.0851 9.32 14.9952 9.31 13.5252C9.73 13.7852 10.48 14.2652 10.49 14.2652C12.42 15.5152 15.35 17.4151 17.12 17.9151C17.25 17.9551 17.39 17.9251 17.51 17.8351L17.75 17.6751L17.81 17.6552C17.95 17.5852 18.03 17.4251 18.06 17.2551C19.61 17.1551 21.61 16.5552 22.71 15.1651C23.13 14.6451 23.36 13.9651 23.36 13.3052C23.36 12.7951 23.21 12.3552 22.95 12.1052L22.96 12.0951Z" fill="#FFBC00"/>
</svg>
