<svg width="24" height="24" viewBox="0 0 24 24" fill="none" xmlns="http://www.w3.org/2000/svg">
<path d="M6.10645 11.4009H9.44336C10.7549 11.4009 11.3774 10.77 11.3774 9.43359V6.14648C11.3774 4.81836 10.7549 4.1875 9.44336 4.1875H6.10645C4.80322 4.1875 4.17236 4.81836 4.17236 6.14648V9.43359C4.17236 10.77 4.80322 11.4009 6.10645 11.4009ZM14.5566 11.4009H17.8936C19.1968 11.4009 19.8276 10.77 19.8276 9.43359V6.14648C19.8276 4.81836 19.1968 4.1875 17.8936 4.1875H14.5566C13.2534 4.1875 12.6226 4.81836 12.6226 6.14648V9.43359C12.6226 10.77 13.2534 11.4009 14.5566 11.4009ZM6.11475 9.88184C5.82422 9.88184 5.68311 9.74072 5.68311 9.44189V6.13818C5.68311 5.84766 5.82422 5.70654 6.11475 5.70654H9.43506C9.72559 5.70654 9.8667 5.84766 9.8667 6.13818V9.44189C9.8667 9.74072 9.72559 9.88184 9.43506 9.88184H6.11475ZM14.5649 9.88184C14.2744 9.88184 14.1333 9.74072 14.1333 9.44189V6.13818C14.1333 5.84766 14.2744 5.70654 14.5649 5.70654H17.8936C18.1758 5.70654 18.3169 5.84766 18.3169 6.13818V9.44189C18.3169 9.74072 18.1758 9.88184 17.8936 9.88184H14.5649ZM6.10645 19.8428H9.44336C10.7549 19.8428 11.3774 19.2202 11.3774 17.8838V14.5967C11.3774 13.2686 10.7549 12.6377 9.44336 12.6377H6.10645C4.80322 12.6377 4.17236 13.2686 4.17236 14.5967V17.8838C4.17236 19.2202 4.80322 19.8428 6.10645 19.8428ZM14.5566 19.8428H17.8936C19.1968 19.8428 19.8276 19.2202 19.8276 17.8838V14.5967C19.8276 13.2686 19.1968 12.6377 17.8936 12.6377H14.5566C13.2534 12.6377 12.6226 13.2686 12.6226 14.5967V17.8838C12.6226 19.2202 13.2534 19.8428 14.5566 19.8428ZM6.11475 18.332C5.82422 18.332 5.68311 18.1909 5.68311 17.8921V14.5967C5.68311 14.2979 5.82422 14.1484 6.11475 14.1484H9.43506C9.72559 14.1484 9.8667 14.2979 9.8667 14.5967V17.8921C9.8667 18.1909 9.72559 18.332 9.43506 18.332H6.11475ZM14.5649 18.332C14.2744 18.332 14.1333 18.1909 14.1333 17.8921V14.5967C14.1333 14.2979 14.2744 14.1484 14.5649 14.1484H17.8936C18.1758 14.1484 18.3169 14.2979 18.3169 14.5967V17.8921C18.3169 18.1909 18.1758 18.332 17.8936 18.332H14.5649Z" fill="black"/>
</svg>
