<svg width="24" height="24" viewBox="0 0 24 24" fill="none" xmlns="http://www.w3.org/2000/svg">
<path fill-rule="evenodd" clip-rule="evenodd" d="M11.9999 5.64526C11.1332 4.81206 9.8374 4.25314 8.32392 4.25109C6.99561 4.22346 5.70972 4.72347 4.75514 5.6422L4.75509 5.64225C3.79823 6.56333 3.25465 7.82788 3.25 9.15183H3.25V9.15446C3.25 10.5694 3.91997 11.81 4.74165 12.8711C5.43205 13.7626 6.28988 14.6002 7.06263 15.3548C7.20597 15.4947 7.34638 15.6318 7.48226 15.7659L7.49413 15.7773L11.4851 19.5453C11.7739 19.818 12.2252 19.8182 12.5143 19.5459L16.5052 15.7856L16.518 15.7732C16.6564 15.6365 16.7996 15.4965 16.9458 15.3536C17.7167 14.6001 18.5726 13.7636 19.2613 12.8743C20.0837 11.8123 20.7548 10.5698 20.7499 9.15442C20.7452 7.83036 20.2021 6.56558 19.2452 5.64412C18.2908 4.72485 17.0047 4.22422 15.6762 4.25109C14.1625 4.25308 12.8666 4.81208 11.9999 5.64526Z" fill="black"/>
</svg>
