<svg width="24" height="24" viewBox="0 0 24 24" fill="none" xmlns="http://www.w3.org/2000/svg">
<path fill-rule="evenodd" clip-rule="evenodd" d="M21 10.5035C21 6.47636 16.9627 3.19995 12 3.19995C7.0373 3.19995 3 6.47636 3 10.5035C3 14.114 6.20555 17.1382 10.5263 17.7093C10.8199 17.7725 11.2189 17.9025 11.3192 18.153C11.4103 18.3808 11.3791 18.7376 11.3488 18.967C11.3488 18.967 11.2433 19.6022 11.2205 19.7372L11.2172 19.7564C11.1741 19.9997 11.0649 20.6163 12 20.2231C12.9608 19.819 17.1829 17.1711 19.0708 14.9972C20.3749 13.5674 21 12.1131 21 10.5035ZM18.0051 12.8294H15.4744C15.4297 12.8294 15.3868 12.8116 15.3551 12.78C15.3235 12.7484 15.3057 12.7055 15.3057 12.6607V8.73391C15.3057 8.68916 15.3235 8.64625 15.3551 8.61461C15.3868 8.58297 15.4297 8.5652 15.4744 8.5652H18.0051C18.0499 8.5652 18.0928 8.58297 18.1244 8.61461C18.1561 8.64625 18.1738 8.68916 18.1738 8.73391V9.37249C18.1738 9.41723 18.1561 9.46015 18.1244 9.49179C18.0928 9.52343 18.0499 9.5412 18.0051 9.5412H16.2868V10.2034H18.0051C18.0499 10.2034 18.0928 10.2212 18.1244 10.2528C18.1561 10.2845 18.1738 10.3274 18.1738 10.3721V11.0166C18.1738 11.0613 18.1561 11.1043 18.1244 11.1359C18.0928 11.1675 18.0499 11.1853 18.0051 11.1853H16.2868V11.8484H18.0051C18.0499 11.8484 18.0928 11.8661 18.1244 11.8978C18.1561 11.9294 18.1738 11.9723 18.1738 12.0171V12.6548C18.1746 12.6774 18.1708 12.7 18.1627 12.7212C18.1546 12.7423 18.1423 12.7616 18.1265 12.7779C18.1108 12.7942 18.0919 12.8072 18.0711 12.816C18.0502 12.8249 18.0278 12.8294 18.0051 12.8294ZM8.77205 12.7794C8.74041 12.811 8.6975 12.8288 8.65275 12.8288L8.65528 12.8263H6.12459C6.07984 12.8263 6.03693 12.8085 6.00529 12.7768C5.97365 12.7452 5.95587 12.7023 5.95587 12.6575V8.73243C5.95587 8.68769 5.97365 8.64477 6.00529 8.61313C6.03693 8.58149 6.07984 8.56372 6.12459 8.56372H6.7657C6.81044 8.56372 6.85335 8.58149 6.88499 8.61313C6.91663 8.64477 6.93441 8.68769 6.93441 8.73243V11.8536H8.65275C8.6975 11.8536 8.74041 11.8714 8.77205 11.903C8.80369 11.9347 8.82146 11.9776 8.82146 12.0223V12.6601C8.82146 12.7048 8.80369 12.7477 8.77205 12.7794ZM10.1745 8.55694H9.53674C9.44169 8.55694 9.36465 8.63399 9.36465 8.72903V12.6567C9.36465 12.7517 9.44169 12.8288 9.53674 12.8288H10.1745C10.2695 12.8288 10.3466 12.7517 10.3466 12.6567V8.72903C10.3466 8.63399 10.2695 8.55694 10.1745 8.55694ZM13.8819 8.55694H14.5197C14.5421 8.55694 14.5643 8.56141 14.585 8.5701C14.6057 8.57879 14.6245 8.59152 14.6402 8.60755C14.6559 8.62357 14.6683 8.64257 14.6765 8.66343C14.6848 8.68429 14.6888 8.70659 14.6884 8.72903V12.6466C14.6884 12.6913 14.6706 12.7342 14.639 12.7658C14.6073 12.7975 14.5644 12.8153 14.5197 12.8153H13.8853C13.87 12.815 13.8547 12.813 13.8398 12.8094H13.828H13.8221H13.8136L13.8052 12.8051H13.8001L13.79 12.7984C13.7728 12.7866 13.7579 12.7717 13.7461 12.7545L11.9468 10.3251V12.6811C11.9468 12.7259 11.929 12.7688 11.8974 12.8004C11.8658 12.8321 11.8228 12.8498 11.7781 12.8498H11.1395C11.0948 12.8498 11.0519 12.8321 11.0202 12.8004C10.9886 12.7688 10.9708 12.7259 10.9708 12.6811V8.7535C10.9708 8.70875 10.9886 8.66584 11.0202 8.6342C11.0519 8.60256 11.0948 8.58478 11.1395 8.58478H11.7899H11.7992H11.8059H11.8161H11.8228H11.8329H11.8388H11.8481H11.854L11.8633 8.58984H11.8684L11.8776 8.59659H11.8827L11.892 8.60419L11.9021 8.61431C11.9075 8.61965 11.9123 8.6256 11.9164 8.63202L13.7132 11.059V8.72566C13.7132 8.68091 13.731 8.638 13.7626 8.60636C13.7943 8.57472 13.8372 8.55694 13.8819 8.55694Z" fill="black"/>
</svg>
