<svg width="24" height="24" viewBox="0 0 24 24" fill="none" xmlns="http://www.w3.org/2000/svg">
<path d="M17.9062 19.6328C18.1562 19.875 18.5703 19.8828 18.8125 19.6328C19.0547 19.375 19.0625 18.9766 18.8125 18.7266L4.42969 4.35938C4.17969 4.10938 3.77344 4.10156 3.52344 4.35938C3.28125 4.60156 3.28125 5.01562 3.52344 5.25781L17.9062 19.6328ZM16.1094 14.5938L17.3906 15.8828C19.0391 14.0547 19.9922 12.1172 19.9922 10.1719C19.9922 7.21875 17.9453 5.1875 15.3672 5.1875C13.8516 5.1875 12.6875 5.86719 12 6.88281C11.3125 5.875 10.1406 5.1875 8.625 5.1875C8.05469 5.1875 7.51562 5.28906 7 5.48438L8.53125 7.01562C8.64844 6.97656 8.77344 6.96094 8.89844 6.96094C10.1719 6.96094 10.9297 7.78906 11.3984 8.49219C11.6172 8.80469 11.7812 8.92188 12 8.92188C12.2188 8.92188 12.3594 8.79688 12.5938 8.49219C13.1094 7.78125 13.8438 6.96094 15.2031 6.96094C16.9062 6.96094 18.1797 8.25 18.1797 10.1562C18.1797 11.6016 17.375 13.1328 16.1094 14.5938ZM14.9609 18.1328L13.6953 16.8672C13.2031 17.2656 12.6719 17.6562 12.1328 18.0078C12.0703 18.0547 12.0234 18.0781 12 18.0781C11.9688 18.0781 11.9219 18.0547 11.8594 18.0078C8.55469 15.8125 5.82031 12.8203 5.82031 10.1562C5.82031 9.79688 5.89062 9.46094 6.00781 9.17969L4.5625 7.73438C4.20312 8.42969 4 9.25781 4 10.1719C4 13.5156 6.8125 16.8281 11.1484 19.6406C11.4375 19.8281 11.7734 20.0078 12 20.0078C12.2266 20.0078 12.5547 19.8281 12.8438 19.6406C13.5938 19.1562 14.3125 18.6484 14.9609 18.1328Z" fill="black"/>
</svg>
