<svg width="24" height="24" viewBox="0 0 24 24" fill="none" xmlns="http://www.w3.org/2000/svg">
<path d="M17.7109 19.4375C17.9453 19.6797 18.3359 19.6797 18.5625 19.4375C18.7891 19.2031 18.7969 18.8281 18.5625 18.5859L4.46875 4.5C4.23438 4.26562 3.84375 4.26562 3.60938 4.5C3.38281 4.72656 3.38281 5.125 3.60938 5.35156L17.7109 19.4375ZM19.7578 10.1484C19.7578 7.38281 17.8594 5.42969 15.4062 5.42969C13.8828 5.42969 12.7109 6.27344 12 7.5625C11.3047 6.28125 10.1172 5.42969 8.59375 5.42969C8.03125 5.42969 7.5 5.53125 7.01562 5.73438L17.1172 15.8516C18.7969 14.0234 19.7578 12.1016 19.7578 10.1484ZM12 19.7734C12.1641 19.7734 12.3984 19.6641 12.5703 19.5625C13.3828 19.0391 14.1484 18.4922 14.8516 17.9375L4.75781 7.84375C4.42969 8.50781 4.24219 9.28906 4.24219 10.1484C4.24219 13.4766 7.03125 16.75 11.4375 19.5625C11.6016 19.6641 11.8359 19.7734 12 19.7734Z" fill="black"/>
</svg>
