<svg width="24" height="24" viewBox="0 0 24 24" fill="none" xmlns="http://www.w3.org/2000/svg">
<path d="M10 10.5V15.5" stroke="black" stroke-width="1.5" stroke-miterlimit="10" stroke-linecap="round"/>
<path d="M14 10.5V15.5" stroke="black" stroke-width="1.5" stroke-miterlimit="10" stroke-linecap="round"/>
<path fill-rule="evenodd" clip-rule="evenodd" d="M8.25 1.75C7.83579 1.75 7.5 2.08579 7.5 2.5C7.5 2.91421 7.83579 3.25 8.25 3.25H9.25V5.75H6C5.58579 5.75 5.25 6.08579 5.25 6.5V19.5C5.25 19.9142 5.58579 20.25 6 20.25H6.79688C6.79688 20.9404 7.35652 21.5 8.04688 21.5C8.73723 21.5 9.29688 20.9404 9.29688 20.25H14.7031C14.7031 20.9404 15.2628 21.5 15.9531 21.5C16.6435 21.5 17.2031 20.9404 17.2031 20.25H18C18.4142 20.25 18.75 19.9142 18.75 19.5V6.5C18.75 6.08579 18.4142 5.75 18 5.75H14.75V3.25H15.75C16.1642 3.25 16.5 2.91421 16.5 2.5C16.5 2.08579 16.1642 1.75 15.75 1.75H14H10H8.25ZM13.25 5.75V3.25H10.75V5.75H13.25ZM6.75 18.75V7.25H17.25V18.75H6.75Z" fill="black"/>
</svg>
