<svg width="24" height="24" viewBox="0 0 24 24" fill="none" xmlns="http://www.w3.org/2000/svg">
<path d="M5.94043 11.3345H9.72559C10.7798 11.3345 11.311 10.8032 11.311 9.70752V5.99707C11.311 4.90137 10.7798 4.37842 9.72559 4.37842H5.94043C4.88623 4.37842 4.35498 4.90137 4.35498 5.99707V9.70752C4.35498 10.8032 4.88623 11.3345 5.94043 11.3345ZM14.2744 11.3345H18.0513C19.1055 11.3345 19.6367 10.8032 19.6367 9.70752V5.99707C19.6367 4.90137 19.1055 4.37842 18.0513 4.37842H14.2744C13.2119 4.37842 12.6807 4.90137 12.6807 5.99707V9.70752C12.6807 10.8032 13.2119 11.3345 14.2744 11.3345ZM5.94043 19.6602H9.72559C10.7798 19.6602 11.311 19.1372 11.311 18.0415V14.3228C11.311 13.2354 10.7798 12.7041 9.72559 12.7041H5.94043C4.88623 12.7041 4.35498 13.2354 4.35498 14.3228V18.0415C4.35498 19.1372 4.88623 19.6602 5.94043 19.6602ZM14.2744 19.6602H18.0513C19.1055 19.6602 19.6367 19.1372 19.6367 18.0415V14.3228C19.6367 13.2354 19.1055 12.7041 18.0513 12.7041H14.2744C13.2119 12.7041 12.6807 13.2354 12.6807 14.3228V18.0415C12.6807 19.1372 13.2119 19.6602 14.2744 19.6602Z" fill="black"/>
</svg>
