<svg width="24" height="24" viewBox="0 0 24 24" fill="none" xmlns="http://www.w3.org/2000/svg">
<g clip-path="url(#clip0_6365_28182)">
<path d="M3.5 16V8H7.66667L13.5 4V20L7.66667 16H3.5Z" stroke="black" stroke-width="1.5" stroke-linejoin="round"/>
<path fill-rule="evenodd" clip-rule="evenodd" d="M17.0303 9.96967C16.7374 9.67678 16.2626 9.67678 15.9697 9.96967C15.6768 10.2626 15.6768 10.7374 15.9697 11.0303L17.1893 12.25L15.9697 13.4697C15.6768 13.7626 15.6768 14.2374 15.9697 14.5303C16.2626 14.8232 16.7374 14.8232 17.0303 14.5303L18.25 13.3107L19.4697 14.5303C19.7626 14.8232 20.2374 14.8232 20.5303 14.5303C20.8232 14.2374 20.8232 13.7626 20.5303 13.4697L19.3107 12.25L20.5303 11.0303C20.8232 10.7374 20.8232 10.2626 20.5303 9.96967C20.2374 9.67678 19.7626 9.67678 19.4697 9.96967L18.25 11.1893L17.0303 9.96967Z" fill="black"/>
</g>
<defs>
<clipPath id="clip0_6365_28182">
<rect width="24" height="24" fill="white"/>
</clipPath>
</defs>
</svg>
