<svg width="24" height="24" viewBox="0 0 24 24" fill="none" xmlns="http://www.w3.org/2000/svg">
<path fill-rule="evenodd" clip-rule="evenodd" d="M12 3C16.9706 3 21 7.02944 21 12C21 14.1334 20.2577 16.0934 19.0173 17.6359C17.6575 15.4689 15.0248 14 12 14C8.97528 14 6.34263 15.4688 4.98282 17.6357C6.63238 19.6871 9.16293 21 12.0001 21C12.0001 21 12 21 12 21C7.02944 21 3 16.9706 3 12C3 7.02944 7.02944 3 12 3ZM16.25 9.25C16.25 11.5972 14.3472 13.5 12 13.5C9.65279 13.5 7.75 11.5972 7.75 9.25C7.75 6.90279 9.65279 5 12 5C14.3472 5 16.25 6.90279 16.25 9.25Z" fill="black"/>
<path d="M19.0173 17.6359L18.382 18.0345L18.9418 18.9266L19.6017 18.1059L19.0173 17.6359ZM4.98282 17.6357L4.34754 17.2371L4.06364 17.6895L4.39835 18.1057L4.98282 17.6357ZM12.0001 21V21.75L12.0001 20.25L12.0001 21ZM21.75 12C21.75 6.61522 17.3848 2.25 12 2.25V3.75C16.5563 3.75 20.25 7.44365 20.25 12H21.75ZM19.6017 18.1059C20.9454 16.4351 21.75 14.3105 21.75 12H20.25C20.25 13.9563 19.57 15.7518 18.4328 17.1659L19.6017 18.1059ZM12 14.75C14.7883 14.75 17.1705 16.1039 18.382 18.0345L19.6526 17.2373C18.1445 14.8339 15.2613 13.25 12 13.25V14.75ZM5.61809 18.0344C6.82959 16.1038 9.21174 14.75 12 14.75V13.25C8.73882 13.25 5.85568 14.8338 4.34754 17.2371L5.61809 18.0344ZM12.0001 20.25C9.39971 20.25 7.08062 19.0477 5.56729 17.1657L4.39835 18.1057C6.18415 20.3265 8.92616 21.75 12.0001 21.75L12.0001 20.25ZM12 21.75C12 21.75 12 21.75 12 21.75C12 21.75 12 21.75 12 21.75C12 21.75 12 21.75 12 21.75C12 21.75 12 21.75 12 21.75C12 21.75 12 21.75 12 21.75C12 21.75 12 21.75 12 21.75C12 21.75 12 21.75 12 21.75C12 21.75 12 21.75 12 21.75C12 21.75 12 21.75 12 21.75H12H12H12H12H12H12H12C12 21.75 12 21.75 12 21.75C12 21.75 12 21.75 12 21.75C12 21.75 12 21.75 12 21.75C12 21.75 12 21.75 12 21.75C12 21.75 12 21.75 12 21.75C12 21.75 12 21.75 12 21.75C12 21.75 12 21.75 12 21.75C12 21.75 12 21.75 12 21.75C12 21.75 12 21.75 12 21.75C12 21.75 12 21.75 12 21.75C12 21.75 12 21.75 12 21.75C12 21.75 12 21.75 12 21.75H12H12H12H12H12C12 21.75 12 21.75 12 21.75C12 21.75 12 21.75 12 21.75C12 21.75 12 21.75 12 21.75C12 21.75 12 21.75 12 21.75C12 21.75 12 21.75 12 21.75C12 21.75 12 21.75 12 21.75C12 21.75 12 21.75 12 21.75C12 21.75 12 21.75 12 21.75C12 21.75 12 21.75 12 21.75C12 21.75 12 21.75 12 21.75H12H12H12H12C12 21.75 12 21.75 12 21.75C12 21.75 12 21.75 12 21.75C12 21.75 12 21.75 12 21.75C12 21.75 12 21.75 12 21.75C12 21.75 12 21.75 12 21.75C12 21.75 12 21.75 12.0001 21.75C12.0001 21.75 12.0001 21.75 12.0001 21.75C12.0001 21.75 12.0001 21.75 12.0001 21.75C12.0001 21.75 12.0001 21.75 12.0001 21.75H12.0001H12.0001H12.0001H12.0001H12.0001C12.0001 21.75 12.0001 21.75 12.0001 21.75C12.0001 21.75 12.0001 21.75 12.0001 21.75C12.0001 21.75 12.0001 21.75 12.0001 21.75C12.0001 21.75 12.0001 21.75 12.0001 21.75C12.0001 21.75 12.0001 21.75 12.0001 21.75C12.0001 21.75 12.0001 21.75 12.0001 21.75C12.0001 21.75 12.0001 21.75 12.0001 21.75C12.0001 21.75 12.0001 21.75 12.0001 21.75H12.0001H12.0001H12.0001H12.0001H12.0001C12.0001 21.75 12.0001 21.75 12.0001 21.75C12.0001 21.75 12.0001 21.75 12.0001 21.75C12.0001 21.75 12.0001 21.75 12.0001 21.75C12.0001 21.75 12.0001 21.75 12.0001 21.75C12.0001 21.75 12.0001 21.75 12.0001 21.75C12.0001 21.75 12.0001 21.75 12.0001 21.75C12.0001 21.75 12.0001 21.75 12.0001 21.75C12.0001 21.75 12.0001 21.75 12.0001 21.75C12.0001 21.75 12.0001 21.75 12.0001 21.75H12.0001H12.0001H12.0001H12.0001C12.0001 21.75 12.0001 21.75 12.0001 21.75C12.0001 21.75 12.0001 21.75 12.0001 21.75C12.0001 21.75 12.0001 21.75 12.0001 21.75C12.0001 21.75 12.0001 21.75 12.0001 21.75C12.0001 21.75 12.0001 21.75 12.0001 21.75C12.0001 21.75 12.0001 21.75 12.0001 21.75C12.0001 21.75 12.0001 21.75 12.0001 21.75C12.0001 21.75 12.0001 21.75 12.0001 21.75C12.0001 21.75 12.0001 21.75 12.0001 21.75C12.0001 21.75 12.0001 21.75 12.0001 21.75H12.0001H12.0001H12.0001H12.0001H12.0001C12.0001 21.75 12.0001 21.75 12.0001 21.75C12.0001 21.75 12.0001 21.75 12.0001 21.75C12.0001 21.75 12.0001 21.75 12.0001 21.75C12.0001 21.75 12.0001 21.75 12.0001 21.75C12.0001 21.75 12.0001 21.75 12.0001 21.75C12.0001 21.75 12.0001 21.75 12.0001 21.75C12.0001 21.75 12.0001 21.75 12.0001 21.75C12.0001 21.75 12.0001 21.75 12.0001 21.75C12.0001 21.75 12.0001 21.75 12.0001 21.75C12.0001 21.75 12.0001 21.75 12.0001 21.75C12.0001 21.75 12.0001 21.75 12.0001 21.75C12.0001 21.75 12.0001 21.75 12.0001 21.75H12.0001H12.0001H12.0001H12.0001H12.0001H12.0001H12.0001C12.0001 21.75 12.0001 21.75 12.0001 21.75C12.0001 21.75 12.0001 21.75 12.0001 21.75C12.0001 21.75 12.0001 21.75 12.0001 21.75C12.0001 21.75 12.0001 21.75 12.0001 21.75C12.0001 21.75 12.0001 21.75 12.0001 21.75C12.0001 21.75 12.0001 21.75 12.0001 21.75C12.0001 21.75 12.0001 21.75 12.0001 21.75C12.0001 21.75 12.0001 21.75 12.0001 21.75C12.0001 21.75 12.0001 21.75 12.0001 21.75V20.25C12.0001 20.25 12.0001 20.25 12.0001 20.25C12.0001 20.25 12.0001 20.25 12.0001 20.25C12.0001 20.25 12.0001 20.25 12.0001 20.25C12.0001 20.25 12.0001 20.25 12.0001 20.25C12.0001 20.25 12.0001 20.25 12.0001 20.25C12.0001 20.25 12.0001 20.25 12.0001 20.25C12.0001 20.25 12.0001 20.25 12.0001 20.25C12.0001 20.25 12.0001 20.25 12.0001 20.25C12.0001 20.25 12.0001 20.25 12.0001 20.25H12.0001H12.0001H12.0001H12.0001H12.0001H12.0001H12.0001C12.0001 20.25 12.0001 20.25 12.0001 20.25C12.0001 20.25 12.0001 20.25 12.0001 20.25C12.0001 20.25 12.0001 20.25 12.0001 20.25C12.0001 20.25 12.0001 20.25 12.0001 20.25C12.0001 20.25 12.0001 20.25 12.0001 20.25C12.0001 20.25 12.0001 20.25 12.0001 20.25C12.0001 20.25 12.0001 20.25 12.0001 20.25C12.0001 20.25 12.0001 20.25 12.0001 20.25C12.0001 20.25 12.0001 20.25 12.0001 20.25C12.0001 20.25 12.0001 20.25 12.0001 20.25C12.0001 20.25 12.0001 20.25 12.0001 20.25C12.0001 20.25 12.0001 20.25 12.0001 20.25H12.0001H12.0001H12.0001H12.0001H12.0001C12.0001 20.25 12.0001 20.25 12.0001 20.25C12.0001 20.25 12.0001 20.25 12.0001 20.25C12.0001 20.25 12.0001 20.25 12.0001 20.25C12.0001 20.25 12.0001 20.25 12.0001 20.25C12.0001 20.25 12.0001 20.25 12.0001 20.25C12.0001 20.25 12.0001 20.25 12.0001 20.25C12.0001 20.25 12.0001 20.25 12.0001 20.25C12.0001 20.25 12.0001 20.25 12.0001 20.25C12.0001 20.25 12.0001 20.25 12.0001 20.25C12.0001 20.25 12.0001 20.25 12.0001 20.25H12.0001H12.0001H12.0001H12.0001C12.0001 20.25 12.0001 20.25 12.0001 20.25C12.0001 20.25 12.0001 20.25 12.0001 20.25C12.0001 20.25 12.0001 20.25 12.0001 20.25C12.0001 20.25 12.0001 20.25 12.0001 20.25C12.0001 20.25 12.0001 20.25 12.0001 20.25C12.0001 20.25 12.0001 20.25 12.0001 20.25C12.0001 20.25 12.0001 20.25 12.0001 20.25C12.0001 20.25 12.0001 20.25 12.0001 20.25C12.0001 20.25 12.0001 20.25 12.0001 20.25H12.0001H12.0001H12.0001H12.0001H12.0001C12.0001 20.25 12.0001 20.25 12.0001 20.25C12.0001 20.25 12.0001 20.25 12.0001 20.25C12.0001 20.25 12.0001 20.25 12.0001 20.25C12.0001 20.25 12.0001 20.25 12.0001 20.25C12.0001 20.25 12.0001 20.25 12.0001 20.25C12.0001 20.25 12.0001 20.25 12.0001 20.25C12.0001 20.25 12.0001 20.25 12.0001 20.25C12.0001 20.25 12.0001 20.25 12.0001 20.25H12.0001H12.0001H12.0001H12.0001H12.0001C12.0001 20.25 12.0001 20.25 12.0001 20.25C12.0001 20.25 12.0001 20.25 12.0001 20.25C12.0001 20.25 12.0001 20.25 12.0001 20.25C12 20.25 12 20.25 12 20.25C12 20.25 12 20.25 12 20.25C12 20.25 12 20.25 12 20.25C12 20.25 12 20.25 12 20.25C12 20.25 12 20.25 12 20.25C12 20.25 12 20.25 12 20.25H12H12H12H12C12 20.25 12 20.25 12 20.25C12 20.25 12 20.25 12 20.25C12 20.25 12 20.25 12 20.25C12 20.25 12 20.25 12 20.25C12 20.25 12 20.25 12 20.25C12 20.25 12 20.25 12 20.25C12 20.25 12 20.25 12 20.25C12 20.25 12 20.25 12 20.25C12 20.25 12 20.25 12 20.25C12 20.25 12 20.25 12 20.25H12H12H12H12H12C12 20.25 12 20.25 12 20.25C12 20.25 12 20.25 12 20.25C12 20.25 12 20.25 12 20.25C12 20.25 12 20.25 12 20.25C12 20.25 12 20.25 12 20.25C12 20.25 12 20.25 12 20.25C12 20.25 12 20.25 12 20.25C12 20.25 12 20.25 12 20.25C12 20.25 12 20.25 12 20.25C12 20.25 12 20.25 12 20.25C12 20.25 12 20.25 12 20.25C12 20.25 12 20.25 12 20.25H12H12H12H12H12H12H12C12 20.25 12 20.25 12 20.25C12 20.25 12 20.25 12 20.25C12 20.25 12 20.25 12 20.25C12 20.25 12 20.25 12 20.25C12 20.25 12 20.25 12 20.25C12 20.25 12 20.25 12 20.25C12 20.25 12 20.25 12 20.25C12 20.25 12 20.25 12 20.25C12 20.25 12 20.25 12 20.25V21.75ZM2.25 12C2.25 17.3848 6.61522 21.75 12 21.75V20.25C7.44365 20.25 3.75 16.5563 3.75 12H2.25ZM12 2.25C6.61522 2.25 2.25 6.61522 2.25 12H3.75C3.75 7.44365 7.44365 3.75 12 3.75V2.25ZM12 14.25C14.7614 14.25 17 12.0114 17 9.25H15.5C15.5 11.183 13.933 12.75 12 12.75V14.25ZM7 9.25C7 12.0114 9.23858 14.25 12 14.25V12.75C10.067 12.75 8.5 11.183 8.5 9.25H7ZM12 4.25C9.23858 4.25 7 6.48858 7 9.25H8.5C8.5 7.317 10.067 5.75 12 5.75V4.25ZM17 9.25C17 6.48858 14.7614 4.25 12 4.25V5.75C13.933 5.75 15.5 7.317 15.5 9.25H17Z" fill="black"/>
<circle cx="12" cy="12" r="9" transform="rotate(-90 12 12)" stroke="black" stroke-width="1.5"/>
</svg>
