<svg width="24" height="24" viewBox="0 0 24 24" fill="none" xmlns="http://www.w3.org/2000/svg">
<path d="M4.50356 9.68534C4.59891 6.23002 7.26408 3.1741 10.6844 2.60856C11.1241 2.53585 11.5593 2.5005 11.9878 2.5C11.9919 2.5 11.9965 2.5 12.0005 2.5C12.0046 2.5 12.0091 2.5 12.0132 2.5C12.4412 2.50101 12.8769 2.53636 13.3166 2.60907C16.7364 3.1746 19.4016 6.23002 19.4969 9.68534C19.5335 11.0138 19.2413 12.2752 18.7058 13.48C17.3034 16.6359 15.0105 19.0758 12.4529 21.3278C12.3271 21.4384 12.1704 21.495 12.0127 21.499V21.5C12.0086 21.5 12.0041 21.5 12 21.5C11.9959 21.5 11.9914 21.5 11.9873 21.5V21.499C11.8296 21.495 11.6729 21.4384 11.5471 21.3278C8.98946 19.0758 6.69655 16.6359 5.29424 13.48C4.75867 12.2752 4.46705 11.0138 4.50356 9.68534Z" stroke="black" stroke-width="1.5" stroke-miterlimit="10" stroke-linejoin="round"/>
<path d="M8 9.99677C7.99808 12.1874 9.79223 13.9776 12 14C14.2082 13.9776 16.0019 12.1874 16 9.99677C15.9977 7.80198 14.2097 6.0186 12 6C9.79031 6.01822 8.00192 7.80198 8 9.99677Z" stroke="black" stroke-width="1.5" stroke-miterlimit="10"/>
</svg>
