<svg width="24" height="24" viewBox="0 0 24 24" fill="none" xmlns="http://www.w3.org/2000/svg">
<path d="M12 20.5V17.5" stroke="black" stroke-width="1.5" stroke-linecap="round" stroke-linejoin="round"/>
<path d="M16 4H16.75C16.75 3.58579 16.4142 3.25 16 3.25V4ZM14.1269 7.38829L13.7276 6.75345C13.477 6.91106 13.3426 7.20132 13.3844 7.49436L14.1269 7.38829ZM8 4V3.25C7.58579 3.25 7.25 3.58579 7.25 4H8ZM9.8731 7.38829L10.6156 7.49436C10.6574 7.20131 10.523 6.91106 10.2724 6.75345L9.8731 7.38829ZM9.26104 11.6727L9.46712 12.3938C9.75158 12.3126 9.96166 12.0716 10.0035 11.7788L9.26104 11.6727ZM6 17.5H5.25C5.25 17.9142 5.58579 18.25 6 18.25V17.5ZM18 17.5V18.25C18.4142 18.25 18.75 17.9142 18.75 17.5H18ZM14.739 11.6727L13.9965 11.7788C14.0383 12.0716 14.2484 12.3126 14.5329 12.3938L14.739 11.6727ZM15.25 4C15.25 5.15907 14.6438 6.1771 13.7276 6.75345L14.5262 8.02313C15.8606 7.18379 16.75 5.69604 16.75 4H15.25ZM8 4.75H16V3.25H8V4.75ZM10.2724 6.75345C9.35622 6.1771 8.75 5.15907 8.75 4H7.25C7.25 5.69604 8.13944 7.18379 9.47376 8.02313L10.2724 6.75345ZM9.13064 7.28222L8.51858 11.5666L10.0035 11.7788L10.6156 7.49436L9.13064 7.28222ZM9.05496 10.9516C6.85879 11.5792 5.25 13.6008 5.25 16H6.75C6.75 14.2881 7.8977 12.8423 9.46712 12.3938L9.05496 10.9516ZM5.25 16V17.5H6.75V16H5.25ZM6 18.25H18V16.75H6V18.25ZM18.75 17.5V16H17.25V17.5H18.75ZM18.75 16C18.75 13.6008 17.1412 11.5792 14.945 10.9516L14.5329 12.3938C16.1023 12.8423 17.25 14.2881 17.25 16H18.75ZM15.4814 11.5666L14.8694 7.28222L13.3844 7.49436L13.9965 11.7788L15.4814 11.5666Z" fill="black"/>
</svg>
