<svg width="24" height="24" viewBox="0 0 24 24" fill="none" xmlns="http://www.w3.org/2000/svg">
<path d="M19.0186 9.61898C19.0186 7.86701 17.5713 6.44141 15.7933 6.44141H3V7.79365H15.7933C16.8146 7.79365 17.6452 8.61207 17.6452 9.61898C17.6452 10.6259 16.8146 11.4443 15.7933 11.4443H3.00193V20.4445H4.3753V12.7966H15.7933C17.572 12.7966 19.0186 11.3709 19.0186 9.61898Z" fill="black"/>
<path d="M15.7933 4H3V5.35224H15.7933C18.1828 5.35224 20.1266 7.26612 20.1266 9.61894C20.1266 11.9718 18.1828 13.8869 15.7933 13.8869H5.48144V20.4444H6.85481V15.2398H15.7933C18.9402 15.2398 21.5 12.7181 21.5 9.61894C21.5 6.51979 18.9402 4 15.7933 4Z" fill="black"/>
</svg>
