<svg width="24" height="24" viewBox="0 0 24 24" fill="none" xmlns="http://www.w3.org/2000/svg">
<circle cx="12" cy="12" r="9" stroke="black" stroke-width="1.5"/>
<path fill-rule="evenodd" clip-rule="evenodd" d="M12 21C16.9706 21 21 16.9706 21 12C21 7.02944 16.9706 3 12 3C7.02944 3 3 7.02944 3 12C3 16.9706 7.02944 21 12 21ZM9.80078 7.04999C9.38657 7.04999 9.05078 7.38577 9.05078 7.79999V12.8V16.8C9.05078 17.2142 9.38657 17.55 9.80078 17.55C10.215 17.55 10.5508 17.2142 10.5508 16.8V13.55H13.3008C15.115 13.55 16.5508 12.1142 16.5508 10.3C16.5508 8.48577 15.115 7.04999 13.3008 7.04999H9.80078ZM13.3008 12.05H10.5508V8.54999H13.3008C14.2866 8.54999 15.0508 9.3142 15.0508 10.3C15.0508 11.2858 14.2866 12.05 13.3008 12.05Z" fill="black"/>
</svg>
