<svg width="24" height="24" viewBox="0 0 24 24" fill="none" xmlns="http://www.w3.org/2000/svg">
<path d="M4.79326 4.41211C4.6075 4.6017 4.5 4.89688 4.5 5.27914V18.9142C4.5 19.2965 4.6075 19.5917 4.79326 19.7813L4.8391 19.8229L12.6757 12.1853V12.005L4.8391 4.36742L4.79326 4.41211Z" fill="black"/>
<path d="M16.2337 14.7324L13.6244 12.1853V12.0049L16.2369 9.45781L16.2954 9.49095L19.3892 11.2073C20.2721 11.6944 20.2721 12.4959 19.3892 12.986L16.2954 14.6993L16.2337 14.7324Z" fill="black"/>
<path d="M15.8206 15.1736L13.1497 12.5694L5.26727 20.2555C5.56053 20.5561 6.03876 20.5923 6.58259 20.2917L15.8206 15.1736Z" fill="black"/>
<path d="M15.8206 9.01668L6.58259 3.89852C6.03876 3.60103 5.56053 3.63725 5.26727 3.93782L13.1497 11.6208L15.8206 9.01668Z" fill="black"/>
</svg>
