<svg width="24" height="24" viewBox="0 0 24 24" fill="none" xmlns="http://www.w3.org/2000/svg">
<circle cx="12" cy="12" r="9" stroke="black" stroke-width="1.5"/>
<path d="M11.6264 13.7238C11.3503 13.7238 11.1227 13.4994 11.1468 13.2243C11.1764 12.8873 11.2382 12.6042 11.3321 12.375C11.4692 12.0403 11.7192 11.7117 12.0821 11.3891C12.449 11.0625 12.693 10.7984 12.8139 10.5968C12.9349 10.3911 12.9954 10.1754 12.9954 9.9496C12.9954 9.26815 12.6809 8.92742 12.0518 8.92742C11.7534 8.92742 11.5135 9.02016 11.3321 9.20565C11.254 9.28543 11.1924 9.37886 11.1471 9.48594C11.0415 9.7358 10.8375 9.96169 10.5662 9.96169H9.80507C9.52688 9.96169 9.29646 9.73298 9.34312 9.45873C9.43408 8.92411 9.66763 8.48894 10.0438 8.15323C10.5357 7.71774 11.205 7.5 12.0518 7.5C12.9067 7.5 13.57 7.70766 14.0417 8.12298C14.5135 8.53427 14.7494 9.11694 14.7494 9.87097C14.7494 10.2137 14.6728 10.5383 14.5196 10.8448C14.3663 11.1472 14.0982 11.4839 13.7151 11.8548L13.2252 12.3206C12.9188 12.6149 12.7434 12.9597 12.699 13.3548C12.6854 13.5624 12.5131 13.7238 12.3051 13.7238H11.6264ZM10.951 15.5806C10.951 15.3105 11.0417 15.0887 11.2232 14.9153C11.4087 14.7379 11.6446 14.6492 11.9309 14.6492C12.2171 14.6492 12.451 14.7379 12.6325 14.9153C12.818 15.0887 12.9107 15.3105 12.9107 15.5806C12.9107 15.8468 12.82 16.0665 12.6385 16.2399C12.4611 16.4133 12.2252 16.5 11.9309 16.5C11.6365 16.5 11.3986 16.4133 11.2171 16.2399C11.0397 16.0665 10.951 15.8468 10.951 15.5806Z" fill="black"/>
</svg>
