<svg width="24" height="24" viewBox="0 0 24 24" fill="none" xmlns="http://www.w3.org/2000/svg">
<path fill-rule="evenodd" clip-rule="evenodd" d="M12.5303 3.96967C12.2374 3.67678 11.7626 3.67678 11.4697 3.96967L7.96967 7.46967C7.67678 7.76256 7.67678 8.23744 7.96967 8.53033C8.26256 8.82322 8.73744 8.82322 9.03033 8.53033L11.25 6.31066V14C11.25 14.4142 11.5858 14.75 12 14.75C12.4142 14.75 12.75 14.4142 12.75 14V6.31066L14.9697 8.53033C15.2626 8.82322 15.7374 8.82322 16.0303 8.53033C16.3232 8.23744 16.3232 7.76256 16.0303 7.46967L12.5303 3.96967ZM6.25 11.5C6.25 11.0858 5.91421 10.75 5.5 10.75C5.08579 10.75 4.75 11.0858 4.75 11.5V18.5C4.75 18.9142 5.08579 19.25 5.5 19.25H18.5C18.9142 19.25 19.25 18.9142 19.25 18.5V11.5C19.25 11.0858 18.9142 10.75 18.5 10.75C18.0858 10.75 17.75 11.0858 17.75 11.5V17.75H6.25V11.5Z" fill="black"/>
</svg>
