<svg width="24" height="24" viewBox="0 0 24 24" fill="none" xmlns="http://www.w3.org/2000/svg">
<path fill-rule="evenodd" clip-rule="evenodd" d="M9.13631 6.50338C8.9989 6.34798 8.79803 6.25 8.57428 6.25C8.57376 6.25 8.57323 6.25 8.57271 6.25C8.38357 6.24963 8.19431 6.32038 8.04838 6.46228L5.47717 8.96228C5.18019 9.25103 5.17352 9.72586 5.46228 10.0228C5.75103 10.3198 6.22586 10.3265 6.52283 10.0377L7.82428 8.77232V16.1667C7.82428 16.5809 8.16007 16.9167 8.57428 16.9167C8.98849 16.9167 9.32428 16.5809 9.32428 16.1667V8.77829L10.6196 10.0377C10.9166 10.3265 11.3914 10.3198 11.6801 10.0228C11.9689 9.72586 11.9622 9.25103 11.6652 8.96228L9.13631 6.50338Z" fill="black"/>
<path fill-rule="evenodd" clip-rule="evenodd" d="M16.1801 7C16.1801 6.58579 15.8443 6.25 15.4301 6.25C15.0159 6.25 14.6801 6.58579 14.6801 7V15.2277L13.3786 13.9623C13.0816 13.6735 12.6068 13.6802 12.3181 13.9772C12.0293 14.2741 12.036 14.749 12.3329 15.0377L14.9042 17.5377C15.1952 17.8208 15.6587 17.8208 15.9498 17.5377L18.521 15.0377C18.818 14.749 18.8247 14.2741 18.5359 13.9772C18.2472 13.6802 17.7723 13.6735 17.4754 13.9623L16.1801 15.2216V7Z" fill="black"/>
</svg>
