<svg width="24" height="24" viewBox="0 0 24 24" fill="none" xmlns="http://www.w3.org/2000/svg">
<g clip-path="url(#clip0_3680_16135)">
<path fill-rule="evenodd" clip-rule="evenodd" d="M16.2843 4.99414C15.5885 4.99414 15.0244 5.55822 15.0244 6.25404C15.0244 6.94986 15.5885 7.51394 16.2843 7.51394C16.9801 7.51394 17.5442 6.94986 17.5442 6.25404C17.5442 5.55822 16.9801 4.99414 16.2843 4.99414ZM13.5244 6.25404C13.5244 4.72979 14.7601 3.49414 16.2843 3.49414C17.8086 3.49414 19.0442 4.72979 19.0442 6.25404C19.0442 7.77829 17.8086 9.01394 16.2843 9.01394C15.5375 9.01394 14.86 8.71731 14.3631 8.23544L9.33647 11.1376C9.4269 11.4107 9.47585 11.7026 9.47585 12.006C9.47585 12.3092 9.42695 12.6011 9.3366 12.874L14.3634 15.7762C14.8603 15.2945 15.5377 14.998 16.2843 14.998C17.8086 14.998 19.0442 16.2337 19.0442 17.7579C19.0442 19.2822 17.8086 20.5178 16.2843 20.5178C14.7601 20.5178 13.5244 19.2822 13.5244 17.7579C13.5244 17.5216 13.5541 17.2922 13.61 17.0733L8.49212 14.1185C8.01211 14.5225 7.39246 14.7659 6.71595 14.7659C5.1917 14.7659 3.95605 13.5302 3.95605 12.006C3.95605 10.4817 5.1917 9.24609 6.71595 9.24609C7.39231 9.24609 8.01184 9.48939 8.49181 9.89324L13.6099 6.93826C13.5541 6.71946 13.5244 6.49022 13.5244 6.25404ZM6.71595 10.7461C6.02013 10.7461 5.45605 11.3102 5.45605 12.006C5.45605 12.7018 6.02013 13.2659 6.71595 13.2659C7.41178 13.2659 7.97585 12.7018 7.97585 12.006C7.97585 11.3102 7.41178 10.7461 6.71595 10.7461ZM16.2843 16.498C15.5885 16.498 15.0244 17.0621 15.0244 17.7579C15.0244 18.4538 15.5885 19.0178 16.2843 19.0178C16.9801 19.0178 17.5442 18.4538 17.5442 17.7579C17.5442 17.0621 16.9801 16.498 16.2843 16.498Z" fill="black"/>
</g>
<defs>
<clipPath id="clip0_3680_16135">
<rect width="24" height="24" fill="white"/>
</clipPath>
</defs>
</svg>
