<svg width="24" height="24" viewBox="0 0 24 24" fill="none" xmlns="http://www.w3.org/2000/svg">
<path fill-rule="evenodd" clip-rule="evenodd" d="M11.5 18.25C7.77208 18.25 4.75 15.2279 4.75 11.5C4.75 7.77208 7.77208 4.75 11.5 4.75C15.2279 4.75 18.25 7.77208 18.25 11.5C18.25 15.2279 15.2279 18.25 11.5 18.25ZM3.25 11.5C3.25 16.0563 6.94365 19.75 11.5 19.75C13.5081 19.75 15.3487 19.0325 16.7793 17.84L19.4697 20.5303C19.7626 20.8232 20.2374 20.8232 20.5303 20.5303C20.8232 20.2374 20.8232 19.7626 20.5303 19.4697L17.84 16.7793C19.0325 15.3487 19.75 13.5081 19.75 11.5C19.75 6.94365 16.0563 3.25 11.5 3.25C6.94365 3.25 3.25 6.94365 3.25 11.5Z" fill="black"/>
</svg>
