<svg width="24" height="24" viewBox="0 0 24 24" fill="none" xmlns="http://www.w3.org/2000/svg">
<path d="M7.56202 14.4905C7.56202 14.9614 7.92933 15.3287 8.40025 15.3287C8.86174 15.3287 9.22906 14.9614 9.22906 14.4905V11.0839C9.22906 10.9143 9.37033 10.7825 9.53986 10.7825C9.70939 10.7825 9.84125 10.9143 9.84125 11.0839L9.84125 21.0724C9.84125 21.581 10.2556 21.986 10.7642 21.986C11.2728 21.986 11.6872 21.581 11.6872 21.0724L11.6872 15.1686C11.6872 14.9991 11.8285 14.8484 11.998 14.8484C12.1676 14.8484 12.3183 14.9991 12.3183 15.1686L12.3183 21.0724C12.3183 21.581 12.7233 21.986 13.2318 21.986C13.7404 21.986 14.1548 21.581 14.1548 21.0724L14.1548 11.0839C14.1548 10.9143 14.2867 10.7825 14.4562 10.7825C14.6257 10.7825 14.767 10.9143 14.767 11.0839V14.4905C14.767 14.9614 15.1343 15.3287 15.5958 15.3287C16.0667 15.3287 16.4341 14.9614 16.4341 14.4905V10.7825C16.4341 8.30781 14.335 7.00702 12.555 7.00702H11.4454C9.66538 7.00702 7.55755 8.30781 7.56202 10.7825L7.56202 14.4905ZM11.998 6.12042C13.1376 6.12042 14.0512 5.20685 14.0512 4.06723C14.0512 2.92761 13.1376 2.01404 11.998 2.01404C10.8584 2.01404 9.94484 2.92761 9.94484 4.06723C9.94484 5.20685 10.8584 6.12042 11.998 6.12042Z" fill="black"/>
</svg>
