<svg width="24" height="24" viewBox="0 0 24 24" fill="none" xmlns="http://www.w3.org/2000/svg">
<circle cx="12" cy="12" r="3.5" stroke="black" stroke-width="1.5"/>
<path d="M19.178 6.17448C18.7507 6.38263 18.2669 6.5 17.7545 6.5C16.021 6.5 14.6157 5.15685 14.6157 3.5C14.6157 3.45064 14.6169 3.40156 14.6194 3.35279C13.7878 3.12309 12.909 3 12 3C11.091 3 10.2122 3.12309 9.38061 3.35279C9.38307 3.40156 9.38432 3.45064 9.38432 3.5C9.38432 5.15685 7.97903 6.5 6.24551 6.5C5.73306 6.5 5.2493 6.38263 4.82204 6.17448C4.00663 7.0914 3.38012 8.16655 3 9.34498C3.99672 9.84763 4.6761 10.848 4.6761 12C4.6761 13.152 3.99672 14.1524 3 14.655C3.38012 15.8335 4.00663 16.9086 4.82205 17.8255C5.2493 17.6174 5.73306 17.5 6.24551 17.5C7.97903 17.5 9.38432 18.8431 9.38432 20.5C9.38432 20.5494 9.38307 20.5984 9.38061 20.6472C10.2122 20.8769 11.091 21 12 21C12.909 21 13.7878 20.8769 14.6194 20.6472C14.6169 20.5984 14.6157 20.5494 14.6157 20.5C14.6157 18.8431 16.021 17.5 17.7545 17.5C18.2669 17.5 18.7507 17.6174 19.178 17.8255C19.9934 16.9086 20.6199 15.8335 21 14.655C20.0033 14.1524 19.3239 13.152 19.3239 12C19.3239 10.848 20.0033 9.84763 21 9.34498C20.6199 8.16655 19.9934 7.0914 19.178 6.17448Z" stroke="black" stroke-width="1.5" stroke-linejoin="round"/>
</svg>
