<svg width="24" height="24" viewBox="0 0 24 24" fill="none" xmlns="http://www.w3.org/2000/svg">
<path fill-rule="evenodd" clip-rule="evenodd" d="M4 3.25C3.58579 3.25 3.25 3.58579 3.25 4V20C3.25 20.4142 3.58579 20.75 4 20.75H20C20.4142 20.75 20.75 20.4142 20.75 20V4C20.75 3.58579 20.4142 3.25 20 3.25H4ZM10.3859 8.35688C10.1542 8.21786 9.86561 8.21422 9.63048 8.34735C9.39534 8.48048 9.25 8.7298 9.25 9V15C9.25 15.2702 9.39534 15.5195 9.63048 15.6526C9.86561 15.7858 10.1542 15.7821 10.3859 15.6431L15.3859 12.6431C15.6118 12.5076 15.75 12.2634 15.75 12C15.75 11.7366 15.6118 11.4924 15.3859 11.3569L10.3859 8.35688Z" fill="black"/>
<path d="M7.5 2.75V5" stroke="black" stroke-width="1.5" stroke-linecap="round"/>
<path d="M16.5 2.75V5" stroke="black" stroke-width="1.5" stroke-linecap="round"/>
</svg>
