<svg width="24" height="24" viewBox="0 0 24 24" fill="none" xmlns="http://www.w3.org/2000/svg">
<path fill-rule="evenodd" clip-rule="evenodd" d="M9 3.25C8.58579 3.25 8.25 3.58579 8.25 4V5.75H6.5H5.5C5.08579 5.75 4.75 6.08579 4.75 6.5C4.75 6.91421 5.08579 7.25 5.5 7.25H5.75V20C5.75 20.4142 6.08579 20.75 6.5 20.75H17.5C17.9142 20.75 18.25 20.4142 18.25 20V7.25H18.5C18.9142 7.25 19.25 6.91421 19.25 6.5C19.25 6.08579 18.9142 5.75 18.5 5.75H17.5H15.75V4C15.75 3.58579 15.4142 3.25 15 3.25H9ZM14.25 5.75V4.75H9.75V5.75H14.25ZM9 7.25H7.25V19.25H16.75V7.25H15H9ZM10 10.75C10.4142 10.75 10.75 11.0858 10.75 11.5V15C10.75 15.4142 10.4142 15.75 10 15.75C9.58579 15.75 9.25 15.4142 9.25 15V11.5C9.25 11.0858 9.58579 10.75 10 10.75ZM14.75 11.5C14.75 11.0858 14.4142 10.75 14 10.75C13.5858 10.75 13.25 11.0858 13.25 11.5V15C13.25 15.4142 13.5858 15.75 14 15.75C14.4142 15.75 14.75 15.4142 14.75 15V11.5Z" fill="black"/>
</svg>
