<svg width="24" height="24" viewBox="0 0 24 24" fill="none" xmlns="http://www.w3.org/2000/svg">
<path d="M3.375 15.3672C3.375 18.2031 5.17188 20.5078 7.5625 20.5078H10.1328C11.1953 21.0391 12.4531 21.3438 13.8203 21.3438H14.9141C15.9609 21.3438 16.8359 21.2812 17.4062 21.1328C18.5938 20.8438 19.3516 19.9844 19.3516 18.9219C19.3516 18.75 19.3281 18.5859 19.2812 18.4297C19.8203 17.9922 20.125 17.3672 20.125 16.6875C20.125 16.375 20.0625 16.0781 19.9609 15.8203C20.3125 15.4297 20.5234 14.875 20.5234 14.2969C20.5234 13.9141 20.4297 13.5391 20.2734 13.2422C20.5 12.8984 20.6172 12.4375 20.6172 11.9453C20.6172 10.6484 19.6406 9.65625 18.3516 9.65625H15.4766C15.3281 9.65625 15.2266 9.58594 15.2422 9.44531C15.3125 8.66406 16.5312 6.75781 16.5312 5.17188C16.5312 3.94531 15.6719 3.05469 14.4844 3.05469C13.625 3.05469 13.0312 3.50781 12.4766 4.5625C11.4922 6.46094 10.2812 8.125 8.60156 10.1953H7.26562C5.02344 10.1953 3.375 12.4844 3.375 15.3672ZM8.44531 15.2891C8.44531 13.6484 8.80469 12.6094 9.86719 11.1875C11.0469 9.60156 12.6953 7.67969 13.8828 5.3125C14.1016 4.875 14.2578 4.76562 14.4844 4.76562C14.7578 4.76562 14.9297 4.96094 14.9297 5.30469C14.9297 6.39844 13.6172 8.34375 13.6172 9.64062C13.6172 10.6172 14.3906 11.2578 15.4766 11.2578H18.2969C18.7109 11.2578 19.0156 11.5703 19.0156 11.9844C19.0156 12.2734 18.9219 12.4688 18.6797 12.7109C18.4297 12.9609 18.3984 13.3438 18.6172 13.5781C18.8203 13.8672 18.9141 14.0625 18.9141 14.2969C18.9141 14.5859 18.7734 14.8359 18.4844 15.0469C18.1797 15.2656 18.0703 15.6484 18.25 16.0078C18.3984 16.2969 18.4766 16.4453 18.4766 16.6719C18.4766 17.0156 18.2578 17.2812 17.8125 17.5234C17.5078 17.6875 17.4297 18.0391 17.5469 18.3281C17.6953 18.6797 17.7188 18.75 17.7188 18.9062C17.7188 19.2109 17.4844 19.4609 16.9922 19.5859C16.5391 19.6953 15.7969 19.75 14.7812 19.7422L13.8281 19.7344C10.6172 19.7031 8.44531 17.9062 8.44531 15.2891ZM4.9375 15.3672C4.9375 13.4062 5.91406 11.8594 7.0625 11.7734C7.25 11.7734 7.42969 11.7734 7.60938 11.7656C7.07031 12.8438 6.83594 13.9609 6.83594 15.3047C6.83594 16.7188 7.32031 17.9844 8.20312 18.9922C7.95312 18.9922 7.6875 18.9844 7.42969 18.9844C6.07031 18.8984 4.9375 17.3203 4.9375 15.3672Z" fill="black"/>
</svg>
