<svg width="24" height="24" viewBox="0 0 24 24" fill="none" xmlns="http://www.w3.org/2000/svg">
<path d="M16.0391 10.1406C16.0859 7.1875 13.6875 4.9375 9.92969 4.91406L8.82031 4.89844C7.77344 4.89062 7 4.96875 6.55469 5.08594C5.92969 5.25 5.3125 5.63281 5.3125 6.39844C5.3125 6.71094 5.39062 6.9375 5.5 7.11719C5.5625 7.21094 5.55469 7.29688 5.45312 7.33594C4.95312 7.53906 4.53125 8.01562 4.53125 8.65625C4.53125 9.02344 4.64062 9.34375 4.8125 9.57031C4.90625 9.6875 4.89062 9.79688 4.75 9.88281C4.38281 10.0938 4.13281 10.5547 4.13281 11.0781C4.13281 11.4531 4.25 11.8516 4.46875 12.0469C4.59375 12.1641 4.57031 12.2422 4.4375 12.3594C4.17969 12.5781 4.02344 12.9453 4.02344 13.3984C4.02344 14.1797 4.63281 14.8203 5.42969 14.8203H8.28125C9.00781 14.8203 9.48438 15.1953 9.48438 15.7891C9.48438 16.875 8.13281 18.8672 8.13281 20.2969C8.13281 21.0469 8.61719 21.4844 9.25 21.4844C9.82812 21.4844 10.1172 21.0859 10.4297 20.4766C11.625 18.1406 13.2344 16.2422 14.4609 14.6172C15.5 13.2344 16.0078 12.0469 16.0391 10.1406ZM19.9766 10.0781C19.9766 7.67969 18.4766 5.67188 16.4766 5.67188H15.0469C16.5 6.73438 17.1562 8.33594 17.125 10.1562C17.0938 12.1875 16.3125 13.6328 15.6016 14.5156H16.7734C18.5859 14.5156 19.9766 12.5703 19.9766 10.0781Z" fill="black"/>
</svg>
