<svg width="24" height="24" viewBox="0 0 24 24" fill="none" xmlns="http://www.w3.org/2000/svg">
<path d="M20.6172 9.85156C20.6172 7.01562 18.8203 4.71094 16.4297 4.71094H13.8672C12.7969 4.17969 11.5469 3.875 10.1797 3.875H9.07812C8.03125 3.875 7.15625 3.9375 6.58594 4.07812C5.39844 4.375 4.64062 5.23438 4.64062 6.29688C4.64062 6.46875 4.66406 6.63281 4.71094 6.78906C4.17969 7.21875 3.86719 7.85156 3.86719 8.53125C3.86719 8.83594 3.92969 9.14062 4.03906 9.39062C3.67969 9.78906 3.46875 10.3438 3.46875 10.9219C3.46875 11.3047 3.5625 11.6797 3.71875 11.9766C3.5 12.3203 3.375 12.7734 3.375 13.2734C3.375 14.5703 4.35156 15.5625 5.64062 15.5625H8.51562C8.66406 15.5625 8.76562 15.6328 8.75 15.7734C8.6875 16.5547 7.46094 18.4609 7.46094 20.0469C7.46094 21.2656 8.32812 22.1641 9.50781 22.1641C10.3672 22.1641 10.9609 21.7109 11.5156 20.6562C12.5 18.75 13.7188 17.0938 15.3906 15.0234H16.7266C18.9688 15.0234 20.6172 12.7344 20.6172 9.85156ZM15.5469 9.92969C15.5469 11.5625 15.1875 12.6094 14.125 14.0312C12.9453 15.6172 11.2969 17.5312 10.1094 19.8984C9.89062 20.3438 9.73438 20.4531 9.50781 20.4531C9.23438 20.4531 9.0625 20.25 9.0625 19.9141C9.0625 18.8203 10.3828 16.875 10.3828 15.5781C10.3828 14.6016 9.60156 13.9609 8.51562 13.9609H5.69531C5.28125 13.9609 4.97656 13.6484 4.97656 13.2344C4.97656 12.9453 5.07031 12.75 5.3125 12.5C5.5625 12.2578 5.59375 11.875 5.375 11.6406C5.17188 11.3516 5.07812 11.1562 5.07812 10.9219C5.07812 10.6328 5.21875 10.3828 5.50781 10.1719C5.8125 9.95312 5.92188 9.57031 5.74219 9.21094C5.59375 8.92188 5.51562 8.77344 5.51562 8.54688C5.51562 8.20312 5.73438 7.9375 6.17969 7.69531C6.48438 7.53125 6.57031 7.17969 6.44531 6.89062C6.29688 6.53906 6.27344 6.46875 6.28125 6.3125C6.28125 6 6.50781 5.75781 7 5.63281C7.45312 5.52344 8.19531 5.46875 9.21094 5.47656L10.1641 5.48438C13.375 5.51562 15.5469 7.3125 15.5469 9.92969ZM19.0547 9.85156C19.0547 11.8047 18.0781 13.3594 16.9297 13.4453C16.7422 13.4453 16.5625 13.4453 16.3828 13.4531C16.9219 12.375 17.1562 11.2578 17.1562 9.91406C17.1562 8.49219 16.6719 7.23438 15.7891 6.22656C16.0391 6.22656 16.3047 6.23438 16.5703 6.23438C17.9219 6.32031 19.0547 7.89062 19.0547 9.85156Z" fill="black"/>
</svg>
