<svg width="24" height="24" viewBox="0 0 24 24" fill="none" xmlns="http://www.w3.org/2000/svg">
<path fill-rule="evenodd" clip-rule="evenodd" d="M2.00101 14.7506C1.5868 14.7506 1.25101 14.4148 1.25101 14.0006L1.25101 3.00058C1.25101 2.58636 1.5868 2.25058 2.00101 2.25058L13.001 2.25058C13.4152 2.25058 13.751 2.58636 13.751 3.00058L13.751 9.25209H22.0013C22.4155 9.25209 22.7513 9.58787 22.7513 10.0021V21.0021C22.7513 21.4163 22.4155 21.7521 22.0013 21.7521H11.0013C10.5871 21.7521 10.2513 21.4163 10.2513 21.0021V14.7506H2.00101ZM12.251 9.25209L12.251 3.75058L2.75101 3.75058L2.75101 13.2506H10.2513V12.4H10.1999C9.23392 12.4 8.29384 11.9773 7.49769 11.3592C6.70282 11.9762 5.76397 12.3985 4.79943 12.3985H4.54943C4.27329 12.3985 4.04943 12.1747 4.04943 11.8985V11.3985C4.04943 11.1224 4.27329 10.8985 4.54943 10.8985H4.79943C5.29522 10.8985 5.8626 10.6861 6.41275 10.2975C5.74559 9.4828 5.22978 8.48312 5.05327 7.45968H4.54985C4.27371 7.45968 4.04985 7.23582 4.04985 6.95968V6.45968C4.04985 6.18354 4.27371 5.95968 4.54985 5.95968H6.74985V4.89999C6.74985 4.62385 6.97371 4.39999 7.24985 4.39999H7.74985C8.02599 4.39999 8.24985 4.62385 8.24985 4.89999V5.95968H10.4499C10.726 5.95968 10.9499 6.18354 10.9499 6.45968V6.95968C10.9499 7.23582 10.726 7.45968 10.4499 7.45968H9.94239C9.76542 8.4826 9.2505 9.48186 8.58258 10.2975C9.13338 10.6867 9.70221 10.9 10.1999 10.9H10.2513V10.0021C10.2513 9.58787 10.5871 9.25209 11.0013 9.25209H12.251ZM8.40968 7.45968H6.58587C6.7373 8.06302 7.05673 8.69097 7.49768 9.25301C7.93752 8.69228 8.25759 8.06431 8.40968 7.45968ZM17.1878 11.96C17.0724 11.6828 16.801 11.5021 16.5001 11.5021C16.1991 11.5021 15.9278 11.6828 15.8123 11.96L13.0381 18.6217C12.9318 18.877 13.0528 19.17 13.3083 19.2759L13.76 19.463C14.0148 19.5686 14.3069 19.4479 14.4129 19.1933L15.064 17.63H17.9362L18.5872 19.1933C18.6932 19.4479 18.9854 19.5686 19.2402 19.463L19.6919 19.2759C19.9473 19.17 20.0684 18.877 19.9621 18.6217L17.1878 11.96ZM17.3175 16.1443L16.5001 14.1815L15.6827 16.1443H17.3175Z" fill="black"/>
</svg>
