<svg width="24" height="24" viewBox="0 0 24 24" fill="none" xmlns="http://www.w3.org/2000/svg">
<path d="M7.96094 15.1797C7.91406 18.1328 10.3125 20.375 14.0703 20.4062L15.1797 20.4141C16.2266 20.4219 17 20.3438 17.4375 20.2266C18.0703 20.0625 18.6875 19.6797 18.6875 18.9141C18.6875 18.6016 18.6094 18.3828 18.5 18.2031C18.4375 18.1016 18.4453 18.0156 18.5469 17.9766C19.0469 17.7734 19.4688 17.3047 19.4688 16.6562C19.4688 16.2969 19.3594 15.9688 19.1875 15.7422C19.0938 15.625 19.1094 15.5234 19.25 15.4297C19.6172 15.2188 19.8672 14.7656 19.8672 14.2344C19.8672 13.8672 19.75 13.4609 19.5312 13.2656C19.4062 13.1484 19.4297 13.0703 19.5625 12.9531C19.8203 12.7422 19.9766 12.3672 19.9766 11.9141C19.9766 11.1328 19.3672 10.5 18.5703 10.5H15.7188C14.9922 10.5 14.5156 10.125 14.5156 9.53125C14.5156 8.4375 15.8672 6.45312 15.8672 5.02344C15.8672 4.27344 15.3828 3.82812 14.75 3.82812C14.1719 3.82812 13.8828 4.22656 13.5703 4.83594C12.375 7.17969 10.7656 9.07812 9.53906 10.7031C8.5 12.0859 7.99219 13.2656 7.96094 15.1797ZM4.02344 15.2344C4.02344 17.6328 5.52344 19.6406 7.52344 19.6406H8.95312C7.5 18.5859 6.84375 16.9844 6.875 15.1562C6.90625 13.125 7.6875 11.6797 8.39844 10.7969H7.22656C5.41406 10.7969 4.02344 12.75 4.02344 15.2344Z" fill="black"/>
</svg>
