<svg width="24" height="24" viewBox="0 0 24 24" fill="none" xmlns="http://www.w3.org/2000/svg">
<path fill-rule="evenodd" clip-rule="evenodd" d="M5.46967 10.4697C5.17678 10.7626 5.17678 11.2374 5.46967 11.5303C5.76256 11.8232 6.23744 11.8232 6.53033 11.5303L11.25 6.81066L11.25 19C11.25 19.4142 11.5858 19.75 12 19.75C12.4142 19.75 12.75 19.4142 12.75 19L12.75 6.81066L17.4697 11.5303C17.7626 11.8232 18.2374 11.8232 18.5303 11.5303C18.8232 11.2374 18.8232 10.7626 18.5303 10.4697L12.5303 4.46967C12.3845 4.3238 12.1934 4.25057 12.0022 4.25C12.0015 4.25 12.0007 4.25 12 4.25C11.9992 4.25 11.9985 4.25 11.9978 4.25C11.8969 4.2503 11.8007 4.27051 11.7129 4.30691C11.6245 4.34351 11.5416 4.39776 11.4697 4.46967L5.46967 10.4697Z" fill="black"/>
</svg>
