<svg width="24" height="24" viewBox="0 0 24 24" fill="none" xmlns="http://www.w3.org/2000/svg">
<path d="M3 5.5V4.75C2.58579 4.75 2.25 5.08579 2.25 5.5H3ZM17.5 5.5H18.25C18.25 5.08579 17.9142 4.75 17.5 4.75V5.5ZM3 18.5H2.25C2.25 18.9142 2.58579 19.25 3 19.25V18.5ZM17.5 18.5V19.25C17.9142 19.25 18.25 18.9142 18.25 18.5H17.5ZM17.5 13.875L17.95 13.275C17.7227 13.1046 17.4187 13.0771 17.1646 13.2042C16.9105 13.3312 16.75 13.5909 16.75 13.875H17.5ZM21 16.5L20.55 17.1C20.7773 17.2704 21.0813 17.2979 21.3354 17.1708C21.5895 17.0438 21.75 16.7841 21.75 16.5H21ZM21 7.5H21.75C21.75 7.21592 21.5895 6.95622 21.3354 6.82918C21.0813 6.70214 20.7773 6.72955 20.55 6.9L21 7.5ZM17.5 10.125H16.75C16.75 10.4091 16.9105 10.6688 17.1646 10.7958C17.4187 10.9229 17.7227 10.8954 17.95 10.725L17.5 10.125ZM3 6.25H17.5V4.75H3V6.25ZM3.75 18.5V5.5H2.25V18.5H3.75ZM17.5 17.75H3V19.25H17.5V17.75ZM16.75 13.875V18.5H18.25V13.875H16.75ZM21.45 15.9L17.95 13.275L17.05 14.475L20.55 17.1L21.45 15.9ZM20.25 7.5V16.5H21.75V7.5H20.25ZM17.95 10.725L21.45 8.1L20.55 6.9L17.05 9.525L17.95 10.725ZM16.75 5.5V10.125H18.25V5.5H16.75Z" fill="black"/>
</svg>
