<svg width="24" height="24" viewBox="0 0 24 24" fill="none" xmlns="http://www.w3.org/2000/svg">
<path d="M14.7767 6.26501C15.8241 6.26501 16.6638 5.42532 16.6638 4.37787C16.6638 3.33908 15.8241 2.49939 14.7767 2.49939C13.7293 2.49939 12.8896 3.33908 12.8896 4.37787C12.8896 5.42532 13.7293 6.26501 14.7767 6.26501ZM11.5911 21.5006C15.3653 21.5006 17.8844 18.9815 17.8844 15.2073C17.8844 13.2249 16.9408 12.0649 15.1749 12.0649H14.0149C13.8159 12.0649 13.686 11.9351 13.7639 11.6927L14.5603 9.2775C14.9239 8.16946 14.4045 7.1653 13.1753 6.85366L9.6001 5.95337C9.25384 5.8668 8.99415 5.9274 8.68251 6.10919L5.21124 8.06558C4.80439 8.29931 4.70917 8.89662 4.99483 9.2775C5.27184 9.66705 5.76526 9.7363 6.20675 9.51123L9.39235 7.82319L11.2535 8.31662C11.6171 8.4205 11.7556 8.67154 11.6344 9.00915L10.6562 11.7533C10.2061 13.0431 10.9678 14.1425 12.2144 14.1425H15.4346C16.1012 14.1425 16.5686 14.5407 16.5686 15.2073C16.5686 18.1938 14.5862 20.1848 11.5998 20.1848C8.61326 20.1848 6.6136 18.1938 6.6136 15.2073C6.6136 14.1771 6.91658 13.2769 7.41866 12.5238C7.98133 11.684 6.86464 10.9828 6.276 11.8658C5.67004 12.792 5.29781 13.9261 5.29781 15.2073C5.29781 18.9815 7.8082 21.5006 11.5911 21.5006ZM17.9104 21.5006C18.4384 21.5006 18.8626 21.0765 18.8626 20.5484C18.8626 20.0203 18.4384 19.5962 17.9104 19.5962C17.3823 19.5962 16.9582 20.0203 16.9582 20.5484C16.9582 21.0765 17.3823 21.5006 17.9104 21.5006Z" fill="black"/>
</svg>
