<svg width="16" height="72" viewBox="0 0 16 72" fill="none" xmlns="http://www.w3.org/2000/svg">
<g clip-path="url(#clip0_29414_72891)">
<path fill-rule="evenodd" clip-rule="evenodd" d="M0.5 0H15.5C15.7761 0 16 0.223858 16 0.5V71.5C16 71.7761 15.7761 72 15.5 72H0.5C0.223858 72 0 71.7761 0 71.5V0.499998C0 0.223856 0.223858 0 0.5 0ZM8.5999 4.10195C8.5999 4.43332 8.33127 4.70195 7.9999 4.70195C7.66853 4.70195 7.3999 4.43332 7.3999 4.10195C7.3999 3.77058 7.66853 3.50195 7.9999 3.50195C8.33127 3.50195 8.5999 3.77058 8.5999 4.10195Z" fill="white"/>
<path d="M10.73 58.8422V57.7822H5.27002V63.2922H6.20002V58.8422H10.73Z" fill="black"/>
<path d="M10.73 67.3622L8.42002 65.2222L10.72 63.1022L10.73 63.0922V61.7322L7.54002 64.6722H5.27002V65.7822H7.54002L10.73 68.7222V67.3622Z" fill="black"/>
<path d="M6.47002 55.5823L10.73 51.6223V51.6123V50.3223H5.27002V51.3923H9.59002L5.28002 55.4123L5.27002 55.4223V56.6423H10.73V55.5823H6.47002Z" fill="black"/>
<path d="M10.8601 46.6422V44.7622C10.8601 43.2222 9.58014 41.9622 8.00014 41.9622C6.42014 41.9622 5.14014 43.2222 5.14014 44.7722V46.6522C5.14014 48.1922 6.42014 49.4522 8.00014 49.4522C9.58014 49.4522 10.8601 48.2022 10.8601 46.6522V46.6422ZM8.00014 48.3422C6.98014 48.3422 6.14014 47.5822 6.14014 46.6422V44.7622C6.14014 43.8222 6.97014 43.0622 8.00014 43.0622C9.03014 43.0622 9.86014 43.8222 9.86014 44.7622V46.6422C9.86014 47.5822 9.03014 48.3422 8.00014 48.3422Z" fill="black"/>
</g>
<defs>
<clipPath id="clip0_29414_72891">
<rect width="16" height="72" fill="white"/>
</clipPath>
</defs>
</svg>
