<svg width="16" height="36" viewBox="0 0 16 36" fill="none" xmlns="http://www.w3.org/2000/svg">
<g clip-path="url(#clip0_43846_79999)">
<path fill-rule="evenodd" clip-rule="evenodd" d="M0.75 0H15.25C15.6642 0 16 0.335786 16 0.75V35.25C16 35.6642 15.6642 36 15.25 36H0.75C0.335786 36 0 35.6642 0 35.25V0.749999C0 0.335786 0.335786 0 0.75 0ZM8.5999 4.1C8.5999 4.43137 8.33127 4.7 7.9999 4.7C7.66853 4.7 7.3999 4.43137 7.3999 4.1C7.3999 3.76863 7.66853 3.5 7.9999 3.5C8.33127 3.5 8.5999 3.76863 8.5999 4.1Z" fill="#DD3B3B"/>
<path d="M6.13976 9.19041L10.7397 9.19041L10.7397 8.14844L5.25016 8.14844L5.25016 13.8009L6.13976 13.8009L6.13976 9.19041Z" fill="white"/>
<path d="M10.7397 15.6503L10.7397 14.6289L5.25016 14.6289L5.25016 15.6503L10.7397 15.6503Z" fill="white"/>
<path d="M10.7397 24.1506L10.7397 23.0239L6.16152 20.3155L10.7397 17.6069L10.7397 16.4805L5.25016 19.7282L5.25016 20.9029L10.7282 24.144L10.7397 24.1506Z" fill="white"/>
<path d="M9.85548 30.8899L10.7402 30.8899L10.7402 24.9805L5.25065 24.9805L5.25065 30.8899L6.1333 30.8899L6.1333 25.9514L7.55398 25.9514L7.55398 30.5603L8.43664 30.5603L8.43664 25.9514L9.85548 25.9514L9.85548 30.8899Z" fill="white"/>
</g>
<defs>
<clipPath id="clip0_43846_79999">
<rect width="16" height="36" fill="white"/>
</clipPath>
</defs>
</svg>
