<svg width="16" height="44" viewBox="0 0 16 44" fill="none" xmlns="http://www.w3.org/2000/svg">
<g clip-path="url(#clip0_29414_72890)">
<path fill-rule="evenodd" clip-rule="evenodd" d="M0.5 0.00195312H15.5C15.7761 0.00195312 16 0.225811 16 0.501953V43.502C16 43.7781 15.7761 44.002 15.5 44.002H0.5C0.223858 44.002 0 43.7781 0 43.502V0.501953C0 0.22581 0.223858 0.00195312 0.5 0.00195312ZM8.5999 4.10195C8.5999 4.43332 8.33127 4.70195 7.9999 4.70195C7.66853 4.70195 7.3999 4.43332 7.3999 4.10195C7.3999 3.77058 7.66853 3.50195 7.9999 3.50195C8.33127 3.50195 8.5999 3.77058 8.5999 4.10195Z" fill="black"/>
<path d="M5.25 24.7369L9.84804 29.0213V24.8056H10.7402V31.0605L6.14216 26.7762V31.0703H5.25V24.7369Z" fill="white"/>
<path d="M10.7402 22.6884H5.25V23.7472H10.7402V22.6884Z" fill="white"/>
<path d="M5.25 38.0313H9.32843L6.69118 35.5705L9.32843 33.1097H5.25V32.1392H10.7402V33.0215L8.02451 35.5509L10.7402 38.1097V39.0019H5.25V38.0313Z" fill="white"/>
<path d="M5.25 8.01176H8.03431V12.551C8.03431 13.051 8.44608 13.4627 8.94608 13.4627C9.44608 13.4627 9.85784 13.051 9.85784 12.551V8.01176H10.75V12.551C10.75 13.5412 9.94608 14.3451 8.95588 14.3451C7.96569 14.3451 7.16176 13.5412 7.16176 12.551V8.89411H5.26961V8.00195L5.25 8.01176Z" fill="white"/>
<path d="M5.25 20.4043L7.14216 18.6396V16.1788H5.25V15.2866H8.03431V17.8062L10.7402 15.2866V19.9141C10.7402 20.9043 9.93627 21.7082 8.94608 21.7082C7.95588 21.7082 7.21078 20.9729 7.15196 20.0219V19.8552L5.2598 21.6101V20.3945L5.25 20.4043ZM8.03431 19.0219V19.9043C8.03431 20.4043 8.44608 20.816 8.94608 20.816C9.44608 20.816 9.85784 20.4043 9.85784 19.9043V17.3258L8.04412 19.0219H8.03431Z" fill="white"/>
</g>
<defs>
<clipPath id="clip0_29414_72890">
<rect width="16" height="44" fill="white"/>
</clipPath>
</defs>
</svg>
