<svg width="12" height="32" viewBox="0 0 12 32" fill="none" xmlns="http://www.w3.org/2000/svg">
<g clip-path="url(#clip0_29414_72892)">
<path fill-rule="evenodd" clip-rule="evenodd" d="M0.5 0H11.5C11.7761 0 12 0.223858 12 0.5V31.5C12 31.7761 11.7761 32 11.5 32H0.5C0.223858 32 0 31.7761 0 31.5V0.5C0 0.223858 0.223858 0 0.5 0ZM6.5 3.3C6.5 3.57614 6.27614 3.8 6 3.8C5.72386 3.8 5.5 3.57614 5.5 3.3C5.5 3.02386 5.72386 2.8 6 2.8C6.27614 2.8 6.5 3.02386 6.5 3.3Z" fill="black"/>
<path d="M8.29045 20.16V19.27H3.71045V23.89H4.49045V20.16H8.29045Z" fill="white"/>
<path d="M8.29045 27.3001L6.36045 25.5101L8.29045 23.7301V23.7201V22.5801L5.61045 25.0501H3.71045V25.9801H5.61045L8.29045 28.4401V27.3001Z" fill="white"/>
<path d="M4.72045 17.42L8.29045 14.09V13.01H3.71045V13.9H7.33045L3.71045 17.28V18.31H8.29045V17.42H4.72045Z" fill="white"/>
<path d="M8.36446 9.90826V8.36174C8.36446 7.09103 7.30061 6.04688 6.00035 6.04688C4.70008 6.04688 3.63623 7.08118 3.63623 8.36174V9.90826C3.63623 11.179 4.70008 12.2231 6.00035 12.2231C7.30061 12.2231 8.36446 11.1888 8.36446 9.90826ZM6.00035 11.3169C5.1532 11.3169 4.46367 10.6865 4.46367 9.90826V8.36174C4.46367 7.58355 5.1532 6.95312 6.00035 6.95312C6.84749 6.95312 7.53702 7.58355 7.53702 8.36174V9.90826C7.53702 10.6865 6.84749 11.3169 6.00035 11.3169Z" fill="white"/>
</g>
<defs>
<clipPath id="clip0_29414_72892">
<rect width="12" height="32" fill="white"/>
</clipPath>
</defs>
</svg>
