<svg width="16" height="64" viewBox="0 0 16 64" fill="none" xmlns="http://www.w3.org/2000/svg">
<g clip-path="url(#clip0_43846_79988)">
<path fill-rule="evenodd" clip-rule="evenodd" d="M0.75 0H15.25C15.6642 0 16 0.335786 16 0.75L16 63.25C16 63.6642 15.6642 64 15.25 64H0.75C0.335786 64 0 63.6642 0 63.25V0.75C0 0.335786 0.335786 0 0.75 0ZM8.5999 4.1C8.5999 4.43137 8.33127 4.7 7.9999 4.7C7.66853 4.7 7.3999 4.43137 7.3999 4.1C7.3999 3.76863 7.66853 3.5 7.9999 3.5C8.33127 3.5 8.5999 3.76863 8.5999 4.1Z" fill="white"/>
<path d="M11.2305 50.1459V49.0859H5.77051V54.5959H6.70051V50.1459H11.2305Z" fill="#DD3B3B"/>
<path d="M11.2305 58.6652L8.92051 56.5252L11.2205 54.4052L11.2305 54.3952V53.0352L8.04051 55.9752H5.77051V57.0852H8.04051L11.2305 60.0252V58.6652Z" fill="#DD3B3B"/>
<path d="M6.97051 46.885L11.2305 42.925V42.915V41.625H5.77051V42.695H10.0905L5.78051 46.715L5.77051 46.725V47.945H11.2305V46.885H6.97051Z" fill="#DD3B3B"/>
<path d="M11.3606 37.9456V36.0656C11.3606 34.5256 10.0806 33.2656 8.50062 33.2656C6.92062 33.2656 5.64062 34.5256 5.64062 36.0756V37.9556C5.64062 39.4956 6.92062 40.7556 8.50062 40.7556C10.0806 40.7556 11.3606 39.5056 11.3606 37.9556V37.9456ZM8.50062 39.6456C7.48062 39.6456 6.64062 38.8856 6.64062 37.9456V36.0656C6.64062 35.1256 7.47062 34.3656 8.50062 34.3656C9.53062 34.3656 10.3606 35.1256 10.3606 36.0656V37.9456C10.3606 38.8856 9.53062 39.6456 8.50062 39.6456Z" fill="#DD3B3B"/>
</g>
<defs>
<clipPath id="clip0_43846_79988">
<rect width="16" height="64" fill="white"/>
</clipPath>
</defs>
</svg>
