<svg width="64" height="24" viewBox="0 0 64 24" fill="none" xmlns="http://www.w3.org/2000/svg">
<g opacity="0.3">
<path d="M10.7656 11.2821V12.0318L11.5154 12.0321L15.1148 12.0335C14.959 12.5166 14.7372 12.8706 14.476 13.1319L14.4758 13.132C13.9176 13.6906 13.0603 14.3086 11.4823 14.3086C9.10119 14.3086 7.22706 12.3917 7.22706 9.98203C7.22706 7.57271 9.10085 5.65723 11.4823 5.65723C12.7754 5.65723 13.7045 6.15769 14.4086 6.81699L14.9384 7.31306L15.4516 6.79986L16.7966 5.45478L17.3391 4.91228L16.7845 4.38223C15.5299 3.18339 13.8366 2.25 11.4823 2.25C7.23417 2.25 3.65002 5.70541 3.65002 9.98203C3.65002 14.2586 7.23415 17.7141 11.4819 17.7141C13.7451 17.7141 15.5104 16.962 16.8868 15.5304C18.3358 14.0781 18.753 12.0836 18.7534 10.5464C18.7558 10.1078 18.717 9.67004 18.6376 9.23874L18.5246 8.62453H17.9H11.5156H10.7656V9.37453V11.2821Z" fill="black" stroke="black" stroke-width="1.5"/>
<path d="M23.2199 17.7141C26.1039 17.7141 28.4811 15.4877 28.4811 12.4683C28.4811 9.43245 26.1043 7.22253 23.2206 7.22253C20.3372 7.22253 17.9586 9.43215 17.9586 12.4683C17.9586 15.4877 20.3358 17.7141 23.2199 17.7141ZM23.2199 10.4937C24.1451 10.4937 25.0064 11.2425 25.0064 12.4683C25.0064 13.6808 24.1424 14.4429 23.2199 14.4429C22.2972 14.4429 21.433 13.6806 21.433 12.4683C21.433 11.2421 22.2944 10.4937 23.2199 10.4937Z" fill="black" stroke="black" stroke-width="1.5"/>
<path d="M33.0619 17.7141C35.9479 17.7141 38.3231 15.4875 38.3231 12.4683C38.3231 9.4323 35.9454 7.22253 33.0619 7.22253C30.1784 7.22253 27.8003 9.43223 27.8003 12.4683C27.8003 15.4876 30.176 17.7141 33.0619 17.7141ZM33.0619 10.4937C33.9871 10.4937 34.8484 11.2425 34.8484 12.4683C34.8484 13.6808 33.9844 14.4429 33.0619 14.4429C32.1392 14.4429 31.275 13.6806 31.275 12.4683C31.275 11.2421 32.1364 10.4937 33.0619 10.4937Z" fill="black" stroke="black" stroke-width="1.5"/>
<path d="M47.757 8.245V7.495H47.007H45.1353H44.3853V7.5737C43.8954 7.35617 43.3244 7.22253 42.7007 7.22253C40.0257 7.22253 37.6434 9.54716 37.6434 12.4855C37.6434 14.4018 38.6672 16.0504 40.1236 16.9602L38.4619 17.6511L37.7704 17.9387L38.0569 18.6306C38.6315 20.018 40.1685 21.75 42.7338 21.75C44.034 21.75 45.3085 21.3661 46.2609 20.4421C47.2195 19.512 47.757 18.1271 47.757 16.3169V8.245ZM42.7348 18.4789C42.002 18.4789 41.4895 17.9982 41.226 17.4769C41.6979 17.6312 42.1942 17.7141 42.7007 17.7141C43.2807 17.7141 43.8161 17.5984 44.2834 17.4049C44.2028 17.6862 44.0809 17.8936 43.942 18.0425C43.6996 18.3024 43.3171 18.4789 42.7348 18.4789ZM42.87 14.4426H42.8698C41.96 14.4426 41.117 13.6769 41.117 12.4855C41.117 11.2667 41.9693 10.4934 42.8698 10.4934C43.7185 10.4934 44.5203 11.2279 44.5203 12.4855C44.5203 13.7158 43.7269 14.4428 42.87 14.4426Z" fill="black" stroke="black" stroke-width="1.5"/>
<path d="M51.1017 3.521V2.771H50.3517H48.377H47.627V3.521V16.6916V17.4416H48.377H50.3517H51.1017V16.6916V3.521Z" fill="black" stroke="black" stroke-width="1.5"/>
<path d="M54.0224 12.0168C54.0661 11.6046 54.2282 11.2761 54.4451 11.0292L53.3639 11.4782C53.2903 11.7352 53.2528 12.0199 53.2619 12.3323L54.0224 12.0168ZM54.0224 12.0168L53.2628 12.3322L53.2628 12.3323L53.2619 12.3326L54.0224 12.0168ZM58.3943 13.3259L57.7766 12.9138L57.3584 13.5274C56.9531 14.1221 56.465 14.4429 55.7633 14.4429C55.3792 14.4429 55.0927 14.3565 54.8686 14.2155C54.8367 14.1954 54.8051 14.1736 54.7739 14.15L59.882 12.0374L60.5669 11.7542L60.2917 11.0659L60.0906 10.5629C59.6735 9.45149 58.3445 7.22253 55.5432 7.22253C52.7964 7.22253 50.5541 9.40006 50.5541 12.4683C50.5541 15.3914 52.7854 17.7141 55.7647 17.7141C58.1706 17.7141 59.5649 16.2345 60.1326 15.3903L60.5527 14.7656L59.9264 14.3479L58.3943 13.3259ZM56.7843 10.0578L55.7907 10.4704C56.2501 10.5217 56.5134 10.7643 56.5821 10.9389L57.2799 10.6641L57.2635 10.6245C57.1665 10.4026 56.9999 10.209 56.7843 10.0578Z" fill="black" stroke="black" stroke-width="1.5"/>
</g>
<path d="M11.5156 11.2821V9.37453H17.9C17.971 9.76032 18.0057 10.1519 18.0034 10.5442C18.0034 11.9743 17.6117 13.7455 16.351 15.0055C15.1255 16.2827 13.5589 16.9641 11.4819 16.9641C7.6344 16.9641 4.40002 13.8306 4.40002 9.98203C4.40002 6.13348 7.6344 3 11.4823 3C13.611 3 15.1258 3.83461 16.2663 4.92445L14.9212 6.26953C14.1031 5.50348 12.9975 4.90723 11.4823 4.90723C8.67327 4.90723 6.47706 7.17199 6.47706 9.98203C6.47706 12.7921 8.67327 15.0586 11.4823 15.0586C13.304 15.0586 14.3426 14.3263 15.0063 13.6622C15.5474 13.1211 15.9039 12.3449 16.042 11.2839L11.5156 11.2821Z" fill="white"/>
<path d="M27.7311 12.4683C27.7311 15.0586 25.7047 16.9641 23.2199 16.9641C20.735 16.9641 18.7086 15.0586 18.7086 12.4683C18.7086 9.86289 20.7347 7.97253 23.2206 7.97253C25.7065 7.97253 27.7311 9.86289 27.7311 12.4683ZM25.7564 12.4683C25.7564 10.8511 24.5818 9.74371 23.2199 9.74371C21.8579 9.74371 20.683 10.8504 20.683 12.4683C20.683 14.069 21.8576 15.1929 23.2199 15.1929C24.5822 15.1929 25.7564 14.069 25.7564 12.4683Z" fill="white"/>
<path d="M37.5731 12.4683C37.5731 15.0586 35.5485 16.9641 33.0619 16.9641C30.5753 16.9641 28.5503 15.0586 28.5503 12.4683C28.5503 9.86289 30.576 7.97253 33.0619 7.97253C35.5478 7.97253 37.5731 9.86289 37.5731 12.4683ZM35.5984 12.4683C35.5984 10.8511 34.4238 9.74371 33.0619 9.74371C31.6999 9.74371 30.525 10.8504 30.525 12.4683C30.525 14.069 31.6996 15.1929 33.0619 15.1929C34.4242 15.1929 35.5984 14.069 35.5984 12.4683Z" fill="white"/>
<path d="M47.007 8.245V16.3169C47.007 19.6377 45.0492 21 42.7338 21C40.5541 21 39.2435 19.5354 38.7499 18.3436L40.4704 17.6282C40.7766 18.3605 41.5251 19.2289 42.7348 19.2289C44.216 19.2289 45.1353 18.3092 45.1353 16.5893V15.9425H45.0671C44.6245 16.4874 43.7733 16.9641 42.7007 16.9641C40.4532 16.9641 38.3934 15.0055 38.3934 12.4855C38.3934 9.94796 40.4532 7.97253 42.7007 7.97253C43.7733 7.97253 44.6245 8.44925 45.0671 8.9773H45.1353V8.245H47.007ZM45.2703 12.4855C45.2703 10.9018 44.2156 9.74335 42.8698 9.74335C41.5079 9.74335 40.367 10.9014 40.367 12.4855C40.367 14.0521 41.5079 15.1926 42.8698 15.1926C44.2149 15.1929 45.2703 14.0521 45.2703 12.4855Z" fill="white"/>
<path d="M50.3517 3.521V16.6916H48.377V3.521H50.3517Z" fill="white"/>
<path d="M57.9781 13.9498L59.5102 14.9718C59.0181 15.7037 57.8249 16.9641 55.7647 16.9641C53.211 16.9641 51.3041 14.9887 51.3041 12.4683C51.3041 9.79644 53.2282 7.97253 55.5432 7.97253C57.8758 7.97253 59.0163 9.82878 59.3911 10.8336L59.5953 11.3444L53.5836 13.8306C54.0435 14.7331 54.7585 15.1929 55.7633 15.1929C56.7681 15.1929 57.4673 14.6993 57.9781 13.9498ZM53.2619 12.3326L57.2799 10.6641C57.0585 10.1016 56.3947 9.71066 55.6114 9.71066C54.607 9.7096 53.2109 10.5938 53.2619 12.3323V12.3326Z" fill="white"/>
</svg>
