<svg width="100%" height="100%" viewBox="0 0 91 16" fill="none" xmlns="http://www.w3.org/2000/svg">
<g clip-path="url(#clip0_7844_13016)">
<path d="M48.7872 16L61.2889 2.59435H48.7692V0H67.246L54.7443 13.4102H67.2731V16H48.7872Z" fill="white"/>
<path d="M45.9126 0H42.812V16H45.9126V0Z" fill="white"/>
<path d="M87.5521 16V4.11751L80.3747 11.7921L73.2199 4.11751V16H70.377V0H72.9532L80.343 7.92316L87.7826 0H90.395V16H87.5521Z" fill="white"/>
<path d="M0.00451039 16.0003V7.89183H13.252C13.6093 7.90659 13.9659 7.84895 14.3004 7.72238C14.6349 7.59582 14.9403 7.40294 15.1984 7.15533C15.4564 6.90772 15.6617 6.6105 15.802 6.28152C15.9423 5.95255 16.0146 5.59861 16.0146 5.24098C16.0146 4.88336 15.9423 4.52942 15.802 4.20044C15.6617 3.87147 15.4564 3.57425 15.1984 3.32664C14.9403 3.07903 14.6349 2.88614 14.3004 2.75958C13.9659 2.63301 13.6093 2.57538 13.252 2.59014H0V0.000306869H13.252C13.9531 -0.0202867 14.6513 0.100034 15.3051 0.354138C15.9589 0.608243 16.5551 0.990963 17.0584 1.47964C17.5616 1.96832 17.9617 2.55301 18.2349 3.19909C18.5081 3.84518 18.6488 4.53952 18.6488 5.24098C18.6488 5.94245 18.5081 6.63679 18.2349 7.28287C17.9617 7.92895 17.5616 8.51365 17.0584 9.00232C16.5551 9.491 15.9589 9.87373 15.3051 10.1278C14.6513 10.3819 13.9531 10.5023 13.252 10.4817H2.58982V16.0003H0.00451039Z" fill="white"/>
<path d="M36.1579 16L30.9963 10.4814H23.8099V16H21.2336V7.89152H28.5963L21.2336 0H34.7206C36.0749 0.0114372 37.3721 0.546443 38.3407 1.49295C39.3093 2.43947 39.874 3.72405 39.9167 5.07765C39.9593 6.43124 39.4766 7.74883 38.5695 8.75444C37.6624 9.76005 36.4014 10.3757 35.0506 10.4723L34.5715 10.4994L39.7014 16H36.1579ZM32.1353 7.89152H34.7206C35.078 7.90628 35.4346 7.84864 35.7691 7.72208C36.1035 7.59551 36.409 7.40263 36.667 7.15502C36.9251 6.90741 37.1304 6.61019 37.2707 6.28121C37.4109 5.95224 37.4832 5.59831 37.4832 5.24068C37.4832 4.88305 37.4109 4.52911 37.2707 4.20014C37.1304 3.87116 36.9251 3.57394 36.667 3.32633C36.409 3.07872 36.1035 2.88584 35.7691 2.75927C35.4346 2.63271 35.078 2.57507 34.7206 2.58983H27.1907L32.1353 7.89152Z" fill="white"/>
</g>
<defs>
<clipPath id="clip0_7844_13016">
<rect width="90.3955" height="16" fill="white"/>
</clipPath>
</defs>
</svg>
